<?xml version="1.0" encoding="UTF-8"?>
<svg id="_レイヤー_2" data-name="レイヤー 2" xmlns="http://www.w3.org/2000/svg" viewBox="0 0 296.3 353.59">
  <defs>
    <style>
      .cls-1 {
        fill: #aaa;
        opacity: .33;
      }

      .cls-2 {
        fill: #a9a9a9;
        opacity: .34;
      }

      .cls-3 {
        fill: #6a6a6a;
        opacity: .58;
      }

      .cls-4 {
        fill: #646464;
        opacity: .61;
      }

      .cls-5 {
        fill: #343434;
        opacity: .8;
      }

      .cls-6 {
        fill: #9c9c9c;
        opacity: .39;
      }

      .cls-7 {
        fill: #828282;
        opacity: .49;
      }

      .cls-8 {
        fill: #292929;
        opacity: .84;
      }

      .cls-9 {
        fill: #545454;
        opacity: .67;
      }

      .cls-10 {
        fill: #171717;
        opacity: .91;
      }

      .cls-11 {
        fill: #aeaeae;
        opacity: .32;
      }

      .cls-12 {
        fill: #797979;
        opacity: .53;
      }

      .cls-13 {
        fill: #c2c2c2;
        opacity: .24;
      }

      .cls-14 {
        fill: #737373;
        opacity: .55;
      }

      .cls-15 {
        fill: #d3d3d3;
        opacity: .17;
      }

      .cls-16 {
        fill: #707070;
        opacity: .56;
      }

      .cls-17 {
        fill: #242424;
        opacity: .86;
      }

      .cls-18 {
        fill: #4c4c4c;
        opacity: .7;
      }

      .cls-19 {
        fill: #d7d7d7;
        opacity: .16;
      }

      .cls-20 {
        fill: #eaeaea;
        opacity: .08;
      }

      .cls-21 {
        fill: #5a5a5a;
        opacity: .65;
      }

      .cls-22 {
        fill: #fbfbfb;
        opacity: .02;
      }

      .cls-23 {
        fill: #70c500;
      }

      .cls-24 {
        fill: #afafaf;
        opacity: .31;
      }

      .cls-25 {
        fill: #d4d4d4;
        opacity: .17;
      }

      .cls-26 {
        fill: #7f7f7f;
        opacity: .5;
      }

      .cls-27 {
        fill: #cfcfcf;
        opacity: .19;
      }

      .cls-28 {
        fill: #5f5f5f;
        opacity: .63;
      }

      .cls-29 {
        fill: #ededed;
        opacity: .07;
      }

      .cls-30 {
        fill: #909090;
        opacity: .44;
      }

      .cls-31 {
        fill: #ebebeb;
        opacity: .08;
      }

      .cls-32 {
        fill: #9f9f9f;
        opacity: .38;
      }

      .cls-33 {
        fill: #dadada;
        opacity: .15;
      }

      .cls-34 {
        fill: #a4a4a4;
        opacity: .36;
      }

      .cls-35 {
        fill: #929292;
        opacity: .43;
      }

      .cls-36 {
        fill: #b4b4b4;
        opacity: .29;
      }

      .cls-37 {
        fill: #252525;
        opacity: .85;
      }

      .cls-38 {
        fill: #2c2c2c;
        opacity: .83;
      }

      .cls-39 {
        fill: #dfdfdf;
        opacity: .13;
      }

      .cls-40 {
        fill: #a3a3a3;
        opacity: .36;
      }

      .cls-41 {
        fill: #525252;
        opacity: .68;
      }

      .cls-42 {
        fill: #bbb;
        opacity: .27;
      }

      .cls-43 {
        fill: #424242;
        opacity: .74;
      }

      .cls-44 {
        fill: #0e0e0e;
        opacity: .95;
      }

      .cls-45 {
        fill: #b2b2b2;
        opacity: .3;
      }

      .cls-46 {
        fill: #727272;
        opacity: .55;
      }

      .cls-47 {
        fill: #9b9b9b;
        opacity: .39;
      }

      .cls-48 {
        fill: #0c0c0c;
        opacity: .95;
      }

      .cls-49 {
        fill: #3f3f3f;
        opacity: .75;
      }

      .cls-50 {
        fill: #373737;
        opacity: .78;
      }

      .cls-51 {
        fill: #878787;
        opacity: .47;
      }

      .cls-52 {
        fill: #696969;
        opacity: .59;
      }

      .cls-53 {
        fill: #fcfcfc;
        opacity: .01;
      }

      .cls-54 {
        fill: #0b0b0b;
        opacity: .96;
      }

      .cls-55 {
        fill: #313131;
        opacity: .81;
      }

      .cls-56 {
        fill: #b0b0b0;
        opacity: .31;
      }

      .cls-57 {
        fill: #282828;
        opacity: .84;
      }

      .cls-58 {
        fill: #353535;
        opacity: .79;
      }

      .cls-59 {
        fill: #777;
        opacity: .53;
      }

      .cls-60 {
        fill: #414141;
        opacity: .75;
      }

      .cls-61 {
        fill: #747474;
        opacity: .55;
      }

      .cls-62 {
        fill: #393939;
        opacity: .78;
      }

      .cls-63 {
        fill: #383838;
        opacity: .78;
      }

      .cls-64 {
        fill: #3d3d3d;
        opacity: .76;
      }

      .cls-65 {
        fill: #141414;
        opacity: .92;
      }

      .cls-66 {
        fill: #5d5d5d;
        opacity: .64;
      }

      .cls-67 {
        fill: #9a9a9a;
        opacity: .4;
      }

      .cls-68 {
        fill: #f6f6f6;
        opacity: .04;
      }

      .cls-69 {
        fill: #9e9e9e;
        opacity: .38;
      }

      .cls-70 {
        fill: #d6d6d6;
        opacity: .16;
      }

      .cls-71 {
        fill: #4a4a4a;
        opacity: .71;
      }

      .cls-72 {
        fill: #818181;
        opacity: .49;
      }

      .cls-73 {
        fill: #4e4e4e;
        opacity: .69;
      }

      .cls-74 {
        fill: #323232;
        opacity: .8;
      }

      .cls-75 {
        fill: #080808;
        opacity: .97;
      }

      .cls-76 {
        fill: #5c5c5c;
        opacity: .64;
      }

      .cls-77 {
        fill: #f9f9f9;
        opacity: .02;
      }

      .cls-78 {
        fill: #454545;
        opacity: .73;
      }

      .cls-79 {
        fill: #888;
        opacity: .47;
      }

      .cls-80 {
        fill: #606060;
        opacity: .62;
      }

      .cls-81 {
        fill: #1f1f1f;
        opacity: .88;
      }

      .cls-82 {
        fill: #464646;
        opacity: .73;
      }

      .cls-83 {
        fill: #adadad;
        opacity: .32;
      }

      .cls-84 {
        fill: #e0e0e0;
        opacity: .12;
      }

      .cls-85 {
        fill: #f2f2f2;
        opacity: .05;
      }

      .cls-86 {
        fill: #a6a6a6;
        opacity: .35;
      }

      .cls-87 {
        fill: #7c7c7c;
        opacity: .51;
      }

      .cls-88 {
        fill: #444;
        opacity: .73;
      }

      .cls-89 {
        fill: #919191;
        opacity: .43;
      }

      .cls-90 {
        fill: #dcdcdc;
        opacity: .14;
      }

      .cls-91 {
        fill: #050505;
        opacity: .98;
      }

      .cls-92 {
        fill: #a0a0a0;
        opacity: .37;
      }

      .cls-93 {
        fill: #6b6b6b;
        opacity: .58;
      }

      .cls-94 {
        fill: #a5a5a5;
        opacity: .35;
      }

      .cls-95 {
        fill: #e7e7e7;
        opacity: .09;
      }

      .cls-96 {
        fill: #101010;
        opacity: .94;
      }

      .cls-97 {
        fill: #b7b7b7;
        opacity: .28;
      }

      .cls-98 {
        fill: #191919;
        opacity: .9;
      }

      .cls-99 {
        fill: #f8f8f8;
        opacity: .03;
      }

      .cls-100 {
        fill: #434343;
        opacity: .74;
      }

      .cls-101 {
        fill: #b8b8b8;
        opacity: .28;
      }

      .cls-102 {
        fill: #555;
        opacity: .67;
      }

      .cls-103 {
        fill: #fefefe;
        opacity: 0;
      }

      .cls-104 {
        fill: #585858;
        opacity: .65;
      }

      .cls-105 {
        fill: #939393;
        opacity: .42;
      }

      .cls-106 {
        fill: #8b8b8b;
        opacity: .45;
      }

      .cls-107 {
        fill: #181818;
        opacity: .91;
      }

      .cls-108 {
        fill: #020202;
        opacity: .99;
      }

      .cls-109 {
        fill: #e6e6e6;
        opacity: .1;
      }

      .cls-110 {
        fill: #858585;
        opacity: .48;
      }

      .cls-111 {
        fill: #1a1a1a;
        opacity: .9;
      }

      .cls-112 {
        fill: #a7a7a7;
        opacity: .35;
      }

      .cls-113 {
        fill: #595959;
        opacity: .65;
      }

      .cls-114 {
        fill: #4b4b4b;
        opacity: .71;
      }

      .cls-115 {
        fill: #c6c6c6;
        opacity: .22;
      }

      .cls-116 {
        fill: #2a2a2a;
        opacity: .84;
      }

      .cls-117 {
        fill: #efefef;
        opacity: .06;
      }

      .cls-118 {
        fill: #dedede;
        opacity: .13;
      }

      .cls-119 {
        fill: #c8c8c8;
        opacity: .22;
      }

      .cls-120 {
        fill: #363636;
        opacity: .79;
      }

      .cls-121 {
        fill: #030303;
        opacity: .99;
      }

      .cls-122 {
        fill: #121212;
        opacity: .93;
      }

      .cls-123 {
        fill: #494949;
        opacity: .71;
      }

      .cls-124 {
        fill: #111;
        opacity: .93;
      }

      .cls-125 {
        fill: #c7c7c7;
        opacity: .22;
      }

      .cls-126 {
        fill: #cacaca;
        opacity: .21;
      }

      .cls-127 {
        fill: #e9e9e9;
        opacity: .09;
      }

      .cls-128 {
        fill: #8c8c8c;
        opacity: .45;
      }

      .cls-129 {
        fill: #999;
        opacity: .4;
      }

      .cls-130 {
        fill: #eee;
        opacity: .07;
      }

      .cls-131 {
        fill: #bcbcbc;
        opacity: .26;
      }

      .cls-132 {
        fill: #515151;
        opacity: .68;
      }

      .cls-133 {
        fill: #e2e2e2;
        opacity: .11;
      }

      .cls-134 {
        fill: #0a0a0a;
        opacity: .96;
      }

      .cls-135 {
        fill: #1c1c1c;
        opacity: .89;
      }

      .cls-136 {
        fill: #535353;
        opacity: .67;
      }

      .cls-137 {
        fill: #7a7a7a;
        opacity: .52;
      }

      .cls-138 {
        fill: #e1e1e1;
        opacity: .12;
      }

      .cls-139 {
        fill: #161616;
        opacity: .91;
      }

      .cls-140 {
        fill: #757575;
        opacity: .54;
      }

      .cls-141 {
        fill: #575757;
        opacity: .66;
      }

      .cls-142 {
        fill: #579900;
      }

      .cls-143 {
        fill: #6d6d6d;
        opacity: .57;
      }

      .cls-144 {
        fill: #fdfdfd;
        opacity: 0;
      }

      .cls-145, .cls-146 {
        fill: #fff;
      }

      .cls-147 {
        fill: #c9c9c9;
        opacity: .21;
      }

      .cls-148 {
        fill: #262626;
        opacity: .85;
      }

      .cls-149 {
        fill: #f0f0f0;
        opacity: .06;
      }

      .cls-150 {
        fill: #7b7b7b;
        opacity: .52;
      }

      .cls-151 {
        fill: #bababa;
        opacity: .27;
      }

      .cls-146 {
        opacity: 0;
      }

      .cls-152 {
        fill: #6f6f6f;
        opacity: .56;
      }

      .cls-153 {
        fill: #9d9d9d;
        opacity: .38;
      }

      .cls-154 {
        fill: #949494;
        opacity: .42;
      }

      .cls-155 {
        fill: #8e8e8e;
        opacity: .44;
      }

      .cls-156 {
        opacity: .03;
      }

      .cls-156, .cls-157 {
        fill: #f7f7f7;
      }

      .cls-158 {
        fill: #b1b1b1;
        opacity: .31;
      }

      .cls-159 {
        fill: #222;
        opacity: .87;
      }

      .cls-160 {
        fill: #d2d2d2;
        opacity: .18;
      }

      .cls-161 {
        fill: #1b1b1b;
        opacity: .89;
      }

      .cls-162 {
        fill: #010101;
        opacity: 1;
      }

      .cls-163 {
        fill: #151515;
        opacity: .92;
      }

      .cls-164 {
        fill: #acacac;
        opacity: .33;
      }

      .cls-165 {
        fill: #484848;
        opacity: .72;
      }

      .cls-166 {
        fill: #838383;
        opacity: .49;
      }

      .cls-167 {
        fill: #2e2e2e;
        opacity: .82;
      }

      .cls-168 {
        fill: #333;
        opacity: .8;
      }

      .cls-169 {
        fill: #3c3c3c;
        opacity: .76;
      }

      .cls-170 {
        fill: #060606;
        opacity: .98;
      }

      .cls-171 {
        fill: #6c6c6c;
        opacity: .58;
      }

      .cls-172 {
        fill: #070707;
        opacity: .97;
      }

      .cls-173 {
        fill: #8f8f8f;
        opacity: .44;
      }

      .cls-174 {
        fill: #3b3b3b;
        opacity: .77;
      }

      .cls-175 {
        fill: #7e7e7e;
        opacity: .51;
      }

      .cls-176 {
        fill: #2b2b2b;
        opacity: .83;
      }

      .cls-177 {
        fill: #5b5b5b;
        opacity: .64;
      }

      .cls-178 {
        fill: silver;
        opacity: .25;
      }

      .cls-179 {
        fill: #dbdbdb;
        opacity: .14;
      }

      .cls-180 {
        fill: #666;
        opacity: .6;
      }

      .cls-181 {
        fill: #0f0f0f;
        opacity: .94;
      }

      .cls-182 {
        fill: #898989;
        opacity: .46;
      }

      .cls-183 {
        fill: #989898;
        opacity: .4;
      }

      .cls-184 {
        opacity: .25;
      }

      .cls-185 {
        fill: #131313;
        opacity: .93;
      }

      .cls-186 {
        fill: #ddd;
        opacity: .13;
      }

      .cls-187 {
        fill: #bfbfbf;
        opacity: .25;
      }

      .cls-188 {
        fill: #979797;
        opacity: .41;
      }

      .cls-189 {
        fill: #787878;
        opacity: .53;
      }

      .cls-190 {
        fill: #3a3a3a;
        opacity: .77;
      }

      .cls-191 {
        fill: #ccc;
        opacity: .2;
      }

      .cls-192 {
        fill: #d5d5d5;
        opacity: .16;
      }

      .cls-193 {
        fill: #040404;
        opacity: .98;
      }

      .cls-194 {
        fill: #e3e3e3;
        opacity: .11;
      }

      .cls-195 {
        fill: #0d0d0d;
        opacity: .95;
      }

      .cls-196 {
        fill: #c1c1c1;
        opacity: .24;
      }

      .cls-197 {
        fill: #6e6e6e;
        opacity: .57;
      }

      .cls-198 {
        fill: #2d2d2d;
        opacity: .82;
      }

      .cls-199 {
        fill: #a1a1a1;
        opacity: .37;
      }

      .cls-200 {
        fill: #f4f4f4;
        opacity: .04;
      }

      .cls-201 {
        fill: #5e5e5e;
        opacity: .63;
      }

      .cls-202 {
        fill: #1e1e1e;
        opacity: .88;
      }

      .cls-203 {
        fill: #4f4f4f;
        opacity: .69;
      }

      .cls-204 {
        fill: #d9d9d9;
        opacity: .15;
      }

      .cls-205 {
        fill: #a2a2a2;
        opacity: .36;
      }

      .cls-206 {
        fill: #b9b9b9;
        opacity: .27;
      }

      .cls-207 {
        fill: #404040;
        opacity: .75;
      }

      .cls-208 {
        fill: #ececec;
        opacity: .07;
      }

      .cls-209 {
        fill: #202020;
        opacity: .87;
      }

      .cls-210 {
        fill: #bdbdbd;
        opacity: .26;
      }

      .cls-211 {
        fill: #ababab;
        opacity: .33;
      }

      .cls-212 {
        fill: #d1d1d1;
        opacity: .18;
      }

      .cls-213 {
        fill: #969696;
        opacity: .41;
      }

      .cls-214 {
        fill: #cecece;
        opacity: .19;
      }

      .cls-215 {
        fill: #656565;
        opacity: .6;
      }

      .cls-216 {
        fill: #8d8d8d;
        opacity: .45;
      }

      .cls-217 {
        fill: #232323;
        opacity: .86;
      }

      .cls-218 {
        fill: #090909;
        opacity: .96;
      }

      .cls-219 {
        fill: #3e3e3e;
        opacity: .76;
      }

      .cls-220 {
        fill: #212121;
        opacity: .87;
      }

      .cls-221 {
        opacity: .09;
      }

      .cls-221, .cls-222 {
        fill: #e8e8e8;
      }

      .cls-223 {
        fill: #565656;
        opacity: .66;
      }

      .cls-224 {
        fill: #7d7d7d;
        opacity: .51;
      }

      .cls-225 {
        fill: #d0d0d0;
        opacity: .18;
      }

      .cls-226 {
        fill: #c5c5c5;
        opacity: .23;
      }

      .cls-227 {
        fill: #bebebe;
        opacity: .25;
      }

      .cls-228 {
        fill: #2f2f2f;
        opacity: .82;
      }

      .cls-229 {
        fill: #868686;
        opacity: .47;
      }

      .cls-230 {
        fill: #c4c4c4;
        opacity: .23;
      }

      .cls-231 {
        fill: #b3b3b3;
        opacity: .3;
      }

      .cls-232 {
        fill: #636363;
        opacity: .61;
      }

      .cls-233 {
        fill: #e4e4e4;
        opacity: .11;
      }

      .cls-234 {
        fill: #b6b6b6;
        opacity: .29;
      }

      .cls-235 {
        fill: #f5f5f5;
        opacity: .04;
      }

      .cls-236 {
        fill: #4d4d4d;
        opacity: .7;
      }

      .cls-237 {
        fill: #c3c3c3;
        opacity: .24;
      }

      .cls-238 {
        fill: #474747;
        opacity: .72;
      }

      .cls-239 {
        fill: #626262;
        opacity: .62;
      }

      .cls-240 {
        fill: #e5e5e5;
        opacity: .1;
      }

      .cls-241 {
        fill: #303030;
        opacity: .81;
      }

      .cls-242 {
        fill: #a8a8a8;
        opacity: .34;
      }

      .cls-243 {
        fill: #cbcbcb;
        opacity: .2;
      }

      .cls-244 {
        fill: #505050;
        opacity: .69;
      }

      .cls-245 {
        fill: #959595;
        opacity: .42;
      }

      .cls-246 {
        fill: #f1f1f1;
        opacity: .05;
      }

      .cls-247 {
        fill: #b5b5b5;
        opacity: .29;
      }

      .cls-248 {
        fill: #848484;
        opacity: .48;
      }

      .cls-249 {
        fill: #fafafa;
        opacity: .02;
      }

      .cls-250 {
        fill: #717171;
        opacity: .56;
      }

      .cls-251 {
        fill: #d8d8d8;
        opacity: .15;
      }

      .cls-252 {
        fill: gray;
        opacity: .5;
      }

      .cls-253 {
        fill: #272727;
        opacity: .85;
      }

      .cls-254 {
        fill: #767676;
        opacity: .54;
      }

      .cls-255 {
        fill: #f3f3f3;
        opacity: .05;
      }

      .cls-256 {
        fill: #616161;
        opacity: .62;
      }

      .cls-257 {
        fill: #676767;
        opacity: .6;
      }

      .cls-258 {
        fill: #8a8a8a;
        opacity: .46;
      }

      .cls-259 {
        fill: #cdcdcd;
        opacity: .2;
      }

      .cls-260 {
        fill: #686868;
        opacity: .59;
      }

      .cls-261 {
        fill: #1d1d1d;
        opacity: .89;
      }
    </style>
  </defs>
  <g id="icon">
    <g>
      <g class="cls-184">
        <path class="cls-146" d="M296.17,91.87c-.47-4.01-2.26-7.77-5.14-10.66l-53.93-53.93c-3.38-3.38-7.95-5.27-12.72-5.27h0s0,0,0,0H65.26c-10.68,0-19.33,8.66-19.33,19.33v292.91c0,10.68,8.66,19.33,19.33,19.33h211.71c10.68,0,19.33-8.66,19.33-19.33V93.96h0v-2.09h-.13Z"/>
        <path class="cls-103" d="M296.1,91.79c-.47-4.01-2.26-7.77-5.14-10.66l-53.93-53.93c-3.38-3.38-7.95-5.27-12.72-5.27h0s0,0-.01,0H65.18c-10.68,0-19.33,8.66-19.33,19.33v292.91c0,10.68,8.66,19.33,19.33,19.33h211.71c10.68,0,19.33-8.66,19.33-19.33V93.88h0v-2.09h-.13Z"/>
        <path class="cls-144" d="M296.02,91.7c-.47-4.01-2.26-7.77-5.14-10.66l-53.93-53.93c-3.38-3.38-7.95-5.27-12.72-5.27h0s0,0,0,0H65.11c-10.68,0-19.33,8.66-19.33,19.33v292.91c0,10.68,8.66,19.33,19.33,19.33h211.71c10.68,0,19.33-8.66,19.33-19.33V93.79h0v-2.09h-.13Z"/>
        <path class="cls-53" d="M295.95,91.61c-.47-4.01-2.26-7.77-5.14-10.66l-53.93-53.93c-3.38-3.38-7.95-5.27-12.72-5.27h0s0,0,0,0H65.03c-10.68,0-19.33,8.66-19.33,19.33v292.91c0,10.68,8.66,19.33,19.33,19.33h211.71c10.68,0,19.33-8.66,19.33-19.33V93.7h0v-2.09h-.13Z"/>
        <path class="cls-22" d="M295.87,91.53c-.47-4.01-2.26-7.77-5.14-10.66l-53.93-53.93c-3.38-3.38-7.95-5.27-12.72-5.27h0s0,0,0,0H64.96c-10.68,0-19.33,8.66-19.33,19.33v292.91c0,10.68,8.66,19.33,19.33,19.33h211.71c10.68,0,19.33-8.66,19.33-19.33V93.62h0v-2.09h-.13Z"/>
        <path class="cls-249" d="M295.8,91.44c-.47-4.01-2.26-7.77-5.14-10.66l-53.93-53.93c-3.38-3.38-7.95-5.27-12.72-5.27h0s0,0,0,0H64.89c-10.68,0-19.33,8.66-19.33,19.33v292.91c0,10.68,8.66,19.33,19.33,19.33h211.71c10.68,0,19.33-8.66,19.33-19.33V93.53h0v-2.09h-.13Z"/>
        <path class="cls-77" d="M295.73,91.36c-.47-4.01-2.26-7.77-5.14-10.66l-53.93-53.93c-3.38-3.38-7.95-5.27-12.72-5.27h0s0,0-.01,0H64.81c-10.68,0-19.33,8.66-19.33,19.33v292.91c0,10.68,8.66,19.33,19.33,19.33h211.71c10.68,0,19.33-8.66,19.33-19.33V93.44h0v-2.09h-.13Z"/>
        <path class="cls-99" d="M295.65,91.27c-.47-4.01-2.26-7.77-5.14-10.66l-53.93-53.93c-3.38-3.38-7.95-5.27-12.72-5.27h0s0,0,0,0H64.74c-10.68,0-19.33,8.66-19.33,19.33v292.91c0,10.68,8.66,19.33,19.33,19.33h211.71c10.68,0,19.33-8.66,19.33-19.33V93.36h0v-2.09h-.13Z"/>
        <path class="cls-156" d="M295.58,91.18c-.47-4.01-2.26-7.77-5.14-10.66l-53.93-53.93c-3.38-3.38-7.95-5.27-12.72-5.27h0s0,0,0,0H64.66c-10.68,0-19.33,8.66-19.33,19.33v292.91c0,10.68,8.66,19.33,19.33,19.33h211.71c10.68,0,19.33-8.66,19.33-19.33V93.27h0v-2.09h-.13Z"/>
        <path class="cls-68" d="M295.5,91.1c-.47-4.01-2.26-7.77-5.14-10.66l-53.93-53.93c-3.38-3.38-7.95-5.27-12.72-5.27h0s0,0,0,0H64.59c-10.68,0-19.33,8.66-19.33,19.33v292.91c0,10.68,8.66,19.33,19.33,19.33h211.71c10.68,0,19.33-8.66,19.33-19.33V93.19h0v-2.09h-.13Z"/>
        <path class="cls-235" d="M295.43,91.01c-.47-4.01-2.26-7.77-5.14-10.66l-53.93-53.93c-3.38-3.38-7.95-5.27-12.72-5.27h0s0,0-.01,0H64.51c-10.68,0-19.33,8.66-19.33,19.33v292.91c0,10.68,8.66,19.33,19.33,19.33h211.71c10.68,0,19.33-8.66,19.33-19.33V93.1h0v-2.09h-.13Z"/>
        <path class="cls-200" d="M295.36,90.92c-.47-4.01-2.26-7.77-5.14-10.66l-53.93-53.93c-3.38-3.38-7.95-5.27-12.72-5.27h0s0,0,0,0H64.44c-10.68,0-19.33,8.66-19.33,19.33v292.91c0,10.68,8.66,19.33,19.33,19.33h211.71c10.68,0,19.33-8.66,19.33-19.33V93.01h0v-2.09h-.13Z"/>
        <path class="cls-255" d="M295.28,90.84c-.47-4.01-2.26-7.77-5.14-10.66l-53.93-53.93c-3.38-3.38-7.95-5.27-12.72-5.27h0s0,0,0,0H64.37c-10.68,0-19.33,8.66-19.33,19.33v292.91c0,10.68,8.66,19.33,19.33,19.33h211.71c10.68,0,19.33-8.66,19.33-19.33V92.93h0v-2.09h-.13Z"/>
        <path class="cls-85" d="M295.21,90.75c-.47-4.01-2.26-7.77-5.14-10.66l-53.93-53.93c-3.38-3.38-7.95-5.27-12.72-5.27h0s0,0,0,0H64.29c-10.68,0-19.33,8.66-19.33,19.33v292.91c0,10.68,8.66,19.33,19.33,19.33h211.71c10.68,0,19.33-8.66,19.33-19.33V92.84h0v-2.09h-.13Z"/>
        <path class="cls-246" d="M295.13,90.66c-.47-4.01-2.26-7.77-5.14-10.66l-53.93-53.93c-3.38-3.38-7.95-5.27-12.72-5.27h0s0,0,0,0H64.22c-10.68,0-19.33,8.66-19.33,19.33v292.91c0,10.68,8.66,19.33,19.33,19.33h211.71c10.68,0,19.33-8.66,19.33-19.33V92.75h0v-2.09h-.13Z"/>
        <path class="cls-149" d="M295.06,90.58c-.47-4.01-2.26-7.77-5.14-10.66l-53.93-53.93c-3.38-3.38-7.95-5.27-12.72-5.27h0s0,0,0,0H64.14c-10.68,0-19.33,8.66-19.33,19.33v292.91c0,10.68,8.66,19.33,19.33,19.33h211.71c10.68,0,19.33-8.66,19.33-19.33V92.67h0v-2.09h-.13Z"/>
        <path class="cls-117" d="M294.98,90.49c-.47-4.01-2.26-7.77-5.14-10.66l-53.93-53.93c-3.38-3.38-7.95-5.27-12.72-5.27h0s0,0,0,0H64.07c-10.68,0-19.33,8.66-19.33,19.33v292.91c0,10.68,8.66,19.33,19.33,19.33h211.71c10.68,0,19.33-8.66,19.33-19.33V92.58h0v-2.09h-.13Z"/>
        <path class="cls-130" d="M294.91,90.41c-.47-4.01-2.26-7.77-5.14-10.66l-53.93-53.93c-3.38-3.38-7.95-5.27-12.72-5.27h0s0,0-.01,0H64c-10.68,0-19.33,8.66-19.33,19.33v292.91c0,10.68,8.66,19.33,19.33,19.33h211.71c10.68,0,19.33-8.66,19.33-19.33V92.5h0v-2.09h-.13Z"/>
        <path class="cls-29" d="M294.84,90.32c-.47-4.01-2.26-7.77-5.14-10.66l-53.93-53.93c-3.38-3.38-7.95-5.27-12.72-5.27h0s0,0,0,0H63.92c-10.68,0-19.33,8.66-19.33,19.33v292.91c0,10.68,8.66,19.33,19.33,19.33h211.71c10.68,0,19.33-8.66,19.33-19.33V92.41h0v-2.09h-.13Z"/>
        <path class="cls-208" d="M294.76,90.23c-.47-4.01-2.26-7.77-5.14-10.66l-53.93-53.93c-3.38-3.38-7.95-5.27-12.72-5.27h0s0,0,0,0H63.85c-10.68,0-19.33,8.66-19.33,19.33v292.91c0,10.68,8.66,19.33,19.33,19.33h211.71c10.68,0,19.33-8.66,19.33-19.33V92.32h0v-2.09h-.13Z"/>
        <path class="cls-31" d="M294.69,90.15c-.47-4.01-2.26-7.77-5.14-10.66l-53.93-53.93c-3.38-3.38-7.95-5.27-12.72-5.27h0s0,0,0,0H63.77c-10.68,0-19.33,8.66-19.33,19.33v292.91c0,10.68,8.66,19.33,19.33,19.33h211.71c10.68,0,19.33-8.66,19.33-19.33V92.24h0v-2.09h-.13Z"/>
        <path class="cls-20" d="M294.61,90.06c-.47-4.01-2.26-7.77-5.14-10.66l-53.93-53.93c-3.38-3.38-7.95-5.27-12.72-5.27h0s0,0,0,0H63.7c-10.68,0-19.33,8.66-19.33,19.33v292.91c0,10.68,8.66,19.33,19.33,19.33h211.71c10.68,0,19.33-8.66,19.33-19.33V92.15h0v-2.09h-.13Z"/>
        <path class="cls-127" d="M294.54,89.97c-.47-4.01-2.26-7.77-5.14-10.66l-53.93-53.93c-3.38-3.38-7.95-5.27-12.72-5.27h0s0,0,0,0H63.63c-10.68,0-19.33,8.66-19.33,19.33v292.91c0,10.68,8.66,19.33,19.33,19.33h211.71c10.68,0,19.33-8.66,19.33-19.33V92.06h0v-2.09h-.13Z"/>
        <path class="cls-221" d="M294.47,89.89c-.47-4.01-2.26-7.77-5.14-10.66l-53.93-53.93c-3.38-3.38-7.95-5.27-12.72-5.27h0s0,0,0,0H63.55c-10.68,0-19.33,8.66-19.33,19.33v292.91c0,10.68,8.66,19.33,19.33,19.33h211.71c10.68,0,19.33-8.66,19.33-19.33V91.98h0v-2.09h-.13Z"/>
        <path class="cls-95" d="M294.39,89.8c-.47-4.01-2.26-7.77-5.14-10.66l-53.93-53.93c-3.38-3.38-7.95-5.27-12.72-5.27h0s0,0-.01,0H63.48c-10.68,0-19.33,8.66-19.33,19.33v292.91c0,10.68,8.66,19.33,19.33,19.33h211.71c10.68,0,19.33-8.66,19.33-19.33V91.89h0v-2.09h-.13Z"/>
        <path class="cls-109" d="M294.32,89.71c-.47-4.01-2.26-7.77-5.14-10.66l-53.93-53.93c-3.38-3.38-7.95-5.27-12.72-5.27h0s0,0,0,0H63.4c-10.68,0-19.33,8.66-19.33,19.33v292.91c0,10.68,8.66,19.33,19.33,19.33h211.71c10.68,0,19.33-8.66,19.33-19.33V91.8h0v-2.09h-.13Z"/>
        <path class="cls-240" d="M294.24,89.63c-.47-4.01-2.26-7.77-5.14-10.66l-53.93-53.93c-3.38-3.38-7.95-5.27-12.72-5.27h0s0,0,0,0H63.33c-10.68,0-19.33,8.66-19.33,19.33v292.91c0,10.68,8.66,19.33,19.33,19.33h211.71c10.68,0,19.33-8.66,19.33-19.33V91.72h0v-2.09h-.13Z"/>
        <path class="cls-233" d="M294.17,89.54c-.47-4.01-2.26-7.77-5.14-10.66l-53.93-53.93c-3.38-3.38-7.95-5.27-12.72-5.27h0s0,0,0,0H63.25c-10.68,0-19.33,8.66-19.33,19.33v292.91c0,10.68,8.66,19.33,19.33,19.33h211.71c10.68,0,19.33-8.66,19.33-19.33V91.63h0v-2.09h-.13Z"/>
        <path class="cls-194" d="M294.09,89.46c-.47-4.01-2.26-7.77-5.14-10.66l-53.93-53.93c-3.38-3.38-7.95-5.27-12.72-5.27h0s0,0,0,0H63.18c-10.68,0-19.33,8.66-19.33,19.33v292.91c0,10.68,8.66,19.33,19.33,19.33h211.71c10.68,0,19.33-8.66,19.33-19.33V91.55h0v-2.09h-.13Z"/>
        <path class="cls-133" d="M294.02,89.37c-.47-4.01-2.26-7.77-5.14-10.66l-53.93-53.93c-3.38-3.38-7.95-5.27-12.72-5.27h0s0,0-.01,0H63.11c-10.68,0-19.33,8.66-19.33,19.33v292.91c0,10.68,8.66,19.33,19.33,19.33h211.71c10.68,0,19.33-8.66,19.33-19.33V91.46h0v-2.09h-.13Z"/>
        <path class="cls-138" d="M293.95,89.28c-.47-4.01-2.26-7.77-5.14-10.66l-53.93-53.93c-3.38-3.38-7.95-5.27-12.72-5.27h0s0,0-.01,0H63.03c-10.68,0-19.33,8.66-19.33,19.33v292.91c0,10.68,8.66,19.33,19.33,19.33h211.71c10.68,0,19.33-8.66,19.33-19.33V91.37h0v-2.09h-.13Z"/>
        <path class="cls-84" d="M293.87,89.2c-.47-4.01-2.26-7.77-5.14-10.66l-53.93-53.93c-3.38-3.38-7.95-5.27-12.72-5.27h0s0,0,0,0H62.96c-10.68,0-19.33,8.66-19.33,19.33v292.91c0,10.68,8.66,19.33,19.33,19.33h211.71c10.68,0,19.33-8.66,19.33-19.33V91.29h0v-2.09h-.13Z"/>
        <path class="cls-39" d="M293.8,89.11c-.47-4.01-2.26-7.77-5.14-10.66l-53.93-53.93c-3.38-3.38-7.95-5.27-12.72-5.27h0s0,0,0,0H62.88c-10.68,0-19.33,8.66-19.33,19.33v292.91c0,10.68,8.66,19.33,19.33,19.33h211.71c10.68,0,19.33-8.66,19.33-19.33V91.2h0v-2.09h-.13Z"/>
        <path class="cls-118" d="M293.72,89.02c-.47-4.01-2.26-7.77-5.14-10.66l-53.93-53.93c-3.38-3.38-7.95-5.27-12.72-5.27h0s0,0,0,0H62.81c-10.68,0-19.33,8.66-19.33,19.33v292.91c0,10.68,8.66,19.33,19.33,19.33h211.71c10.68,0,19.33-8.66,19.33-19.33V91.11h0v-2.09h-.13Z"/>
        <path class="cls-186" d="M293.65,88.94c-.47-4.01-2.26-7.77-5.14-10.66l-53.93-53.93c-3.38-3.38-7.95-5.27-12.72-5.27h0s0,0,0,0H62.74c-10.68,0-19.33,8.66-19.33,19.33v292.91c0,10.68,8.66,19.33,19.33,19.33h211.71c10.68,0,19.33-8.66,19.33-19.33V91.03h0v-2.09h-.13Z"/>
        <path class="cls-90" d="M293.58,88.85c-.47-4.01-2.26-7.77-5.14-10.66l-53.93-53.93c-3.38-3.38-7.95-5.27-12.72-5.27h0s0,0-.01,0H62.66c-10.68,0-19.33,8.66-19.33,19.33v292.91c0,10.68,8.66,19.33,19.33,19.33h211.71c10.68,0,19.33-8.66,19.33-19.33V90.94h0v-2.09h-.13Z"/>
        <path class="cls-179" d="M293.5,88.77c-.47-4.01-2.26-7.77-5.14-10.66l-53.93-53.93c-3.38-3.38-7.95-5.27-12.72-5.27h0s0,0,0,0H62.59c-10.68,0-19.33,8.66-19.33,19.33v292.91c0,10.68,8.66,19.33,19.33,19.33h211.71c10.68,0,19.33-8.66,19.33-19.33V90.85h0v-2.09h-.13Z"/>
        <path class="cls-33" d="M293.43,88.68c-.47-4.01-2.26-7.77-5.14-10.66l-53.93-53.93c-3.38-3.38-7.95-5.27-12.72-5.27h0s0,0,0,0H62.51c-10.68,0-19.33,8.66-19.33,19.33v292.91c0,10.68,8.66,19.33,19.33,19.33h211.71c10.68,0,19.33-8.66,19.33-19.33V90.77h0v-2.09h-.13Z"/>
        <path class="cls-204" d="M293.35,88.59c-.47-4.01-2.26-7.77-5.14-10.66l-53.93-53.93c-3.38-3.38-7.95-5.27-12.72-5.27h0s0,0-.01,0H62.44c-10.68,0-19.33,8.66-19.33,19.33v292.91c0,10.68,8.66,19.33,19.33,19.33h211.71c10.68,0,19.33-8.66,19.33-19.33V90.68h0v-2.09h-.13Z"/>
        <path class="cls-251" d="M293.28,88.51c-.47-4.01-2.26-7.77-5.14-10.66l-53.93-53.93c-3.38-3.38-7.95-5.27-12.72-5.27h0s0,0-.01,0H62.36c-10.68,0-19.33,8.66-19.33,19.33v292.91c0,10.68,8.66,19.33,19.33,19.33h211.71c10.68,0,19.33-8.66,19.33-19.33V90.6h0v-2.09h-.13Z"/>
        <path class="cls-19" d="M293.21,88.42c-.47-4.01-2.26-7.77-5.14-10.66l-53.93-53.93c-3.38-3.38-7.95-5.27-12.72-5.27h0s0,0,0,0H62.29c-10.68,0-19.33,8.66-19.33,19.33v292.91c0,10.68,8.66,19.33,19.33,19.33h211.71c10.68,0,19.33-8.66,19.33-19.33V90.51h0v-2.09h-.13Z"/>
        <path class="cls-70" d="M293.13,88.33c-.47-4.01-2.26-7.77-5.14-10.66l-53.93-53.93c-3.38-3.38-7.95-5.27-12.72-5.27h0s0,0,0,0H62.22c-10.68,0-19.33,8.66-19.33,19.33v292.91c0,10.68,8.66,19.33,19.33,19.33h211.71c10.68,0,19.33-8.66,19.33-19.33V90.42h0v-2.09h-.13Z"/>
        <path class="cls-192" d="M293.06,88.25c-.47-4.01-2.26-7.77-5.14-10.66l-53.93-53.93c-3.38-3.38-7.95-5.27-12.72-5.27h0s0,0,0,0H62.14c-10.68,0-19.33,8.66-19.33,19.33v292.91c0,10.68,8.66,19.33,19.33,19.33h211.71c10.68,0,19.33-8.66,19.33-19.33V90.34h0v-2.09h-.13Z"/>
        <path class="cls-25" d="M292.98,88.16c-.47-4.01-2.26-7.77-5.14-10.66l-53.93-53.93c-3.38-3.38-7.95-5.27-12.72-5.27h0s0,0-.01,0H62.07c-10.68,0-19.33,8.66-19.33,19.33v292.91c0,10.68,8.66,19.33,19.33,19.33h211.71c10.68,0,19.33-8.66,19.33-19.33V90.25h0v-2.09h-.13Z"/>
        <path class="cls-15" d="M292.91,88.07c-.47-4.01-2.26-7.77-5.14-10.66l-53.93-53.93c-3.38-3.38-7.95-5.27-12.72-5.27h0s0,0,0,0H61.99c-10.68,0-19.33,8.66-19.33,19.33v292.91c0,10.68,8.66,19.33,19.33,19.33h211.71c10.68,0,19.33-8.66,19.33-19.33V90.16h0v-2.09h-.13Z"/>
        <path class="cls-160" d="M292.83,87.99c-.47-4.01-2.26-7.77-5.14-10.66l-53.93-53.93c-3.38-3.38-7.95-5.27-12.72-5.27h0s0,0,0,0H61.92c-10.68,0-19.33,8.66-19.33,19.33v292.91c0,10.68,8.66,19.33,19.33,19.33h211.71c10.68,0,19.33-8.66,19.33-19.33V90.08h0v-2.09h-.13Z"/>
        <path class="cls-212" d="M292.76,87.9c-.47-4.01-2.26-7.77-5.14-10.66l-53.93-53.93c-3.38-3.38-7.95-5.27-12.72-5.27h0s0,0,0,0H61.85c-10.68,0-19.33,8.66-19.33,19.33v292.91c0,10.68,8.66,19.33,19.33,19.33h211.71c10.68,0,19.33-8.66,19.33-19.33V89.99h0v-2.09h-.13Z"/>
        <path class="cls-225" d="M292.69,87.82c-.47-4.01-2.26-7.77-5.14-10.66l-53.93-53.93c-3.38-3.38-7.95-5.27-12.72-5.27h0s0,0,0,0H61.77c-10.68,0-19.33,8.66-19.33,19.33v292.91c0,10.68,8.66,19.33,19.33,19.33h211.71c10.68,0,19.33-8.66,19.33-19.33V89.91h0v-2.09h-.13Z"/>
        <path class="cls-27" d="M292.61,87.73c-.47-4.01-2.26-7.77-5.14-10.66l-53.93-53.93c-3.38-3.38-7.95-5.27-12.72-5.27h0s0,0-.01,0H61.7c-10.68,0-19.33,8.66-19.33,19.33v292.91c0,10.68,8.66,19.33,19.33,19.33h211.71c10.68,0,19.33-8.66,19.33-19.33V89.82h0v-2.09h-.13Z"/>
        <path class="cls-214" d="M292.54,87.64c-.47-4.01-2.26-7.77-5.14-10.66l-53.93-53.93c-3.38-3.38-7.95-5.27-12.72-5.27h0s0,0,0,0H61.62c-10.68,0-19.33,8.66-19.33,19.33v292.91c0,10.68,8.66,19.33,19.33,19.33h211.71c10.68,0,19.33-8.66,19.33-19.33V89.73h0v-2.09h-.13Z"/>
        <path class="cls-259" d="M292.46,87.56c-.47-4.01-2.26-7.77-5.14-10.66l-53.93-53.93c-3.38-3.38-7.95-5.27-12.72-5.27h0s0,0,0,0H61.55c-10.68,0-19.33,8.66-19.33,19.33v292.91c0,10.68,8.66,19.33,19.33,19.33h211.71c10.68,0,19.33-8.66,19.33-19.33V89.65h0v-2.09h-.13Z"/>
        <path class="cls-191" d="M292.39,87.47c-.47-4.01-2.26-7.77-5.14-10.66l-53.93-53.93c-3.38-3.38-7.95-5.27-12.72-5.27h0s0,0,0,0H61.47c-10.68,0-19.33,8.66-19.33,19.33v292.91c0,10.68,8.66,19.33,19.33,19.33h211.71c10.68,0,19.33-8.66,19.33-19.33V89.56h0v-2.09h-.13Z"/>
        <path class="cls-243" d="M292.32,87.38c-.47-4.01-2.26-7.77-5.14-10.66l-53.93-53.93c-3.38-3.38-7.95-5.27-12.72-5.27h0s0,0,0,0H61.4c-10.68,0-19.33,8.66-19.33,19.33v292.91c0,10.68,8.66,19.33,19.33,19.33h211.71c10.68,0,19.33-8.66,19.33-19.33V89.47h0v-2.09h-.13Z"/>
        <path class="cls-126" d="M292.24,87.3c-.47-4.01-2.26-7.77-5.14-10.66l-53.93-53.93c-3.38-3.38-7.95-5.27-12.72-5.27h0s0,0,0,0H61.33c-10.68,0-19.33,8.66-19.33,19.33v292.91c0,10.68,8.66,19.33,19.33,19.33h211.71c10.68,0,19.33-8.66,19.33-19.33V89.39h0v-2.09h-.13Z"/>
        <path class="cls-147" d="M292.17,87.21c-.47-4.01-2.26-7.77-5.14-10.66l-53.93-53.93c-3.38-3.38-7.95-5.27-12.72-5.27h0s0,0,0,0H61.25c-10.68,0-19.33,8.66-19.33,19.33v292.91c0,10.68,8.66,19.33,19.33,19.33h211.71c10.68,0,19.33-8.66,19.33-19.33V89.3h0v-2.09h-.13Z"/>
        <path class="cls-119" d="M292.09,87.12c-.47-4.01-2.26-7.77-5.14-10.66l-53.93-53.93c-3.38-3.38-7.95-5.27-12.72-5.27h0s0,0,0,0H61.18c-10.68,0-19.33,8.66-19.33,19.33v292.91c0,10.68,8.66,19.33,19.33,19.33h211.71c10.68,0,19.33-8.66,19.33-19.33V89.21h0v-2.09h-.13Z"/>
        <path class="cls-125" d="M292.02,87.04c-.47-4.01-2.26-7.77-5.14-10.66l-53.93-53.93c-3.38-3.38-7.95-5.27-12.72-5.27h0s0,0,0,0H61.1c-10.68,0-19.33,8.66-19.33,19.33v292.91c0,10.68,8.66,19.33,19.33,19.33h211.71c10.68,0,19.33-8.66,19.33-19.33V89.13h0v-2.09h-.13Z"/>
        <path class="cls-115" d="M291.94,86.95c-.47-4.01-2.26-7.77-5.14-10.66l-53.93-53.93c-3.38-3.38-7.95-5.27-12.72-5.27h0s0,0,0,0H61.03c-10.68,0-19.33,8.66-19.33,19.33v292.91c0,10.68,8.66,19.33,19.33,19.33h211.71c10.68,0,19.33-8.66,19.33-19.33V89.04h0v-2.09h-.13Z"/>
        <path class="cls-226" d="M291.87,86.87c-.47-4.01-2.26-7.77-5.14-10.66l-53.93-53.93c-3.38-3.38-7.95-5.27-12.72-5.27h0s0,0,0,0H60.96c-10.68,0-19.33,8.66-19.33,19.33v292.91c0,10.68,8.66,19.33,19.33,19.33h211.71c10.68,0,19.33-8.66,19.33-19.33V88.96h0v-2.09h-.13Z"/>
        <path class="cls-230" d="M291.8,86.78c-.47-4.01-2.26-7.77-5.14-10.66l-53.93-53.93c-3.38-3.38-7.95-5.27-12.72-5.27h0s0,0,0,0H60.88c-10.68,0-19.33,8.66-19.33,19.33v292.91c0,10.68,8.66,19.33,19.33,19.33h211.71c10.68,0,19.33-8.66,19.33-19.33V88.87h0v-2.09h-.13Z"/>
        <path class="cls-237" d="M291.72,86.69c-.47-4.01-2.26-7.77-5.14-10.66l-53.93-53.93c-3.38-3.38-7.95-5.27-12.72-5.27h0s0,0-.01,0H60.81c-10.68,0-19.33,8.66-19.33,19.33v292.91c0,10.68,8.66,19.33,19.33,19.33h211.71c10.68,0,19.33-8.66,19.33-19.33V88.78h0v-2.09h-.13Z"/>
        <path class="cls-13" d="M291.65,86.61c-.47-4.01-2.26-7.77-5.14-10.66l-53.93-53.93c-3.38-3.38-7.95-5.27-12.72-5.27h0s0,0-.01,0H60.73c-10.68,0-19.33,8.66-19.33,19.33v292.91c0,10.68,8.66,19.33,19.33,19.33h211.71c10.68,0,19.33-8.66,19.33-19.33V88.7h0v-2.09h-.13Z"/>
        <path class="cls-196" d="M291.57,86.52c-.47-4.01-2.26-7.77-5.14-10.66l-53.93-53.93c-3.38-3.38-7.95-5.27-12.72-5.27h0s0,0,0,0H60.66c-10.68,0-19.33,8.66-19.33,19.33v292.91c0,10.68,8.66,19.33,19.33,19.33h211.71c10.68,0,19.33-8.66,19.33-19.33V88.61h0v-2.09h-.13Z"/>
        <path class="cls-178" d="M291.5,86.43c-.47-4.01-2.26-7.77-5.14-10.66l-53.93-53.93c-3.38-3.38-7.95-5.27-12.72-5.27h0s0,0-.01,0H60.59c-10.68,0-19.33,8.66-19.33,19.33v292.91c0,10.68,8.66,19.33,19.33,19.33h211.71c10.68,0,19.33-8.66,19.33-19.33V88.52h0v-2.09h-.13Z"/>
        <path class="cls-187" d="M291.43,86.35c-.47-4.01-2.26-7.77-5.14-10.66l-53.93-53.93c-3.38-3.38-7.95-5.27-12.72-5.27h0s0,0-.01,0H60.51c-10.68,0-19.33,8.66-19.33,19.33v292.91c0,10.68,8.66,19.33,19.33,19.33h211.71c10.68,0,19.33-8.66,19.33-19.33V88.44h0v-2.09h-.13Z"/>
        <path class="cls-227" d="M291.35,86.26c-.47-4.01-2.26-7.77-5.14-10.66l-53.93-53.93c-3.38-3.38-7.95-5.27-12.72-5.27h0s0,0,0,0H60.44c-10.68,0-19.33,8.66-19.33,19.33v292.91c0,10.68,8.66,19.33,19.33,19.33h211.71c10.68,0,19.33-8.66,19.33-19.33V88.35h0v-2.09h-.13Z"/>
        <path class="cls-210" d="M291.28,86.18c-.47-4.01-2.26-7.77-5.14-10.66l-53.93-53.93c-3.38-3.38-7.95-5.27-12.72-5.27h0s0,0,0,0H60.36c-10.68,0-19.33,8.66-19.33,19.33v292.91c0,10.68,8.66,19.33,19.33,19.33h211.71c10.68,0,19.33-8.66,19.33-19.33V88.26h0v-2.09h-.13Z"/>
        <path class="cls-131" d="M291.2,86.09c-.47-4.01-2.26-7.77-5.14-10.66l-53.93-53.93c-3.38-3.38-7.95-5.27-12.72-5.27h0s0,0,0,0H60.29c-10.68,0-19.33,8.66-19.33,19.33v292.91c0,10.68,8.66,19.33,19.33,19.33h211.71c10.68,0,19.33-8.66,19.33-19.33V88.18h0v-2.09h-.13Z"/>
        <path class="cls-42" d="M291.13,86c-.47-4.01-2.26-7.77-5.14-10.66l-53.93-53.93c-3.38-3.38-7.95-5.27-12.72-5.27h0s0,0-.01,0H60.21c-10.68,0-19.33,8.66-19.33,19.33v292.91c0,10.68,8.66,19.33,19.33,19.33h211.71c10.68,0,19.33-8.66,19.33-19.33V88.09h0v-2.09h-.13Z"/>
        <path class="cls-151" d="M291.06,85.92c-.47-4.01-2.26-7.77-5.14-10.66l-53.93-53.93c-3.38-3.38-7.95-5.27-12.72-5.27h0s0,0,0,0H60.14c-10.68,0-19.33,8.66-19.33,19.33v292.91c0,10.68,8.66,19.33,19.33,19.33h211.71c10.68,0,19.33-8.66,19.33-19.33V88.01h0v-2.09h-.13Z"/>
        <path class="cls-206" d="M290.98,85.83c-.47-4.01-2.26-7.77-5.14-10.66l-53.93-53.93c-3.38-3.38-7.95-5.27-12.72-5.27h0s0,0,0,0H60.07c-10.68,0-19.33,8.66-19.33,19.33v292.91c0,10.68,8.66,19.33,19.33,19.33h211.71c10.68,0,19.33-8.66,19.33-19.33V87.92h0v-2.09h-.13Z"/>
        <path class="cls-101" d="M290.91,85.74c-.47-4.01-2.26-7.77-5.14-10.66l-53.93-53.93c-3.38-3.38-7.95-5.27-12.72-5.27h0s0,0,0,0H59.99c-10.68,0-19.33,8.66-19.33,19.33v292.91c0,10.68,8.66,19.33,19.33,19.33h211.71c10.68,0,19.33-8.66,19.33-19.33V87.83h0v-2.09h-.13Z"/>
        <path class="cls-97" d="M290.83,85.66c-.47-4.01-2.26-7.77-5.14-10.66l-53.93-53.93c-3.38-3.38-7.95-5.27-12.72-5.27h0s0,0-.01,0H59.92c-10.68,0-19.33,8.66-19.33,19.33v292.91c0,10.68,8.66,19.33,19.33,19.33h211.71c10.68,0,19.33-8.66,19.33-19.33V87.75h0v-2.09h-.13Z"/>
        <path class="cls-234" d="M290.76,85.57c-.47-4.01-2.26-7.77-5.14-10.66l-53.93-53.93c-3.38-3.38-7.95-5.27-12.72-5.27h0s0,0,0,0H59.84c-10.68,0-19.33,8.66-19.33,19.33v292.91c0,10.68,8.66,19.33,19.33,19.33h211.71c10.68,0,19.33-8.66,19.33-19.33V87.66h0v-2.09h-.13Z"/>
        <path class="cls-247" d="M290.68,85.48c-.47-4.01-2.26-7.77-5.14-10.66l-53.93-53.93c-3.38-3.38-7.95-5.27-12.72-5.27h0s0,0,0,0H59.77c-10.68,0-19.33,8.66-19.33,19.33v292.91c0,10.68,8.66,19.33,19.33,19.33h211.71c10.68,0,19.33-8.66,19.33-19.33V87.57h0v-2.09h-.13Z"/>
        <path class="cls-36" d="M290.61,85.4c-.47-4.01-2.26-7.77-5.14-10.66l-53.93-53.93c-3.38-3.38-7.95-5.27-12.72-5.27h0s0,0,0,0H59.7c-10.68,0-19.33,8.66-19.33,19.33v292.91c0,10.68,8.66,19.33,19.33,19.33h211.71c10.68,0,19.33-8.66,19.33-19.33V87.49h0v-2.09h-.13Z"/>
        <path class="cls-231" d="M290.54,85.31c-.47-4.01-2.26-7.77-5.14-10.66l-53.93-53.93c-3.38-3.38-7.95-5.27-12.72-5.27h0s0,0-.01,0H59.62c-10.68,0-19.33,8.66-19.33,19.33v292.91c0,10.68,8.66,19.33,19.33,19.33h211.71c10.68,0,19.33-8.66,19.33-19.33V87.4h0v-2.09h-.13Z"/>
        <path class="cls-45" d="M290.46,85.23c-.47-4.01-2.26-7.77-5.14-10.66l-53.93-53.93c-3.38-3.38-7.95-5.27-12.72-5.27h0s0,0,0,0H59.55c-10.68,0-19.33,8.66-19.33,19.33v292.91c0,10.68,8.66,19.33,19.33,19.33h211.71c10.68,0,19.33-8.66,19.33-19.33V87.31h0v-2.09h-.13Z"/>
        <path class="cls-158" d="M290.39,85.14c-.47-4.01-2.26-7.77-5.14-10.66l-53.93-53.93c-3.38-3.38-7.95-5.27-12.72-5.27h0s0,0,0,0H59.47c-10.68,0-19.33,8.66-19.33,19.33v292.91c0,10.68,8.66,19.33,19.33,19.33h211.71c10.68,0,19.33-8.66,19.33-19.33V87.23h0v-2.09h-.13Z"/>
        <path class="cls-56" d="M290.31,85.05c-.47-4.01-2.26-7.77-5.14-10.66l-53.93-53.93c-3.38-3.38-7.95-5.27-12.72-5.27h0s0,0,0,0H59.4c-10.68,0-19.33,8.66-19.33,19.33v292.91c0,10.68,8.66,19.33,19.33,19.33h211.71c10.68,0,19.33-8.66,19.33-19.33V87.14h0v-2.09h-.13Z"/>
        <path class="cls-24" d="M290.24,84.97c-.47-4.01-2.26-7.77-5.14-10.66l-53.93-53.93c-3.38-3.38-7.95-5.27-12.72-5.27h0s0,0-.01,0H59.32c-10.68,0-19.33,8.66-19.33,19.33v292.91c0,10.68,8.66,19.33,19.33,19.33h211.71c10.68,0,19.33-8.66,19.33-19.33V87.06h0v-2.09h-.13Z"/>
        <path class="cls-11" d="M290.17,84.88c-.47-4.01-2.26-7.77-5.14-10.66l-53.93-53.93c-3.38-3.38-7.95-5.27-12.72-5.27h0s0,0,0,0H59.25c-10.68,0-19.33,8.66-19.33,19.33v292.91c0,10.68,8.66,19.33,19.33,19.33h211.71c10.68,0,19.33-8.66,19.33-19.33V86.97h0v-2.09h-.13Z"/>
        <path class="cls-83" d="M290.09,84.79c-.47-4.01-2.26-7.77-5.14-10.66l-53.93-53.93c-3.38-3.38-7.95-5.27-12.72-5.27h0s0,0,0,0H59.18c-10.68,0-19.33,8.66-19.33,19.33v292.91c0,10.68,8.66,19.33,19.33,19.33h211.71c10.68,0,19.33-8.66,19.33-19.33V86.88h0v-2.09h-.13Z"/>
        <path class="cls-164" d="M290.02,84.71c-.47-4.01-2.26-7.77-5.14-10.66l-53.93-53.93c-3.38-3.38-7.95-5.27-12.72-5.27h0s0,0,0,0H59.1c-10.68,0-19.33,8.66-19.33,19.33v292.91c0,10.68,8.66,19.33,19.33,19.33h211.71c10.68,0,19.33-8.66,19.33-19.33V86.8h0v-2.09h-.13Z"/>
        <path class="cls-211" d="M289.94,84.62c-.47-4.01-2.26-7.77-5.14-10.66l-53.93-53.93c-3.38-3.38-7.95-5.27-12.72-5.27h0s0,0-.01,0H59.03c-10.68,0-19.33,8.66-19.33,19.33v292.91c0,10.68,8.66,19.33,19.33,19.33h211.71c10.68,0,19.33-8.66,19.33-19.33V86.71h0v-2.09h-.13Z"/>
        <path class="cls-1" d="M289.87,84.53c-.47-4.01-2.26-7.77-5.14-10.66l-53.93-53.93c-3.38-3.38-7.95-5.27-12.72-5.27h0s0,0,0,0H58.95c-10.68,0-19.33,8.66-19.33,19.33v292.91c0,10.68,8.66,19.33,19.33,19.33h211.71c10.68,0,19.33-8.66,19.33-19.33V86.62h0v-2.09h-.13Z"/>
        <path class="cls-2" d="M289.79,84.45c-.47-4.01-2.26-7.77-5.14-10.66l-53.93-53.93c-3.38-3.38-7.95-5.27-12.72-5.27h0s0,0,0,0H58.88c-10.68,0-19.33,8.66-19.33,19.33v292.91c0,10.68,8.66,19.33,19.33,19.33h211.71c10.68,0,19.33-8.66,19.33-19.33V86.54h0v-2.09h-.13Z"/>
        <path class="cls-242" d="M289.72,84.36c-.47-4.01-2.26-7.77-5.14-10.66l-53.93-53.93c-3.38-3.38-7.95-5.27-12.72-5.27h0s0,0,0,0H58.81c-10.68,0-19.33,8.66-19.33,19.33v292.91c0,10.68,8.66,19.33,19.33,19.33h211.71c10.68,0,19.33-8.66,19.33-19.33V86.45h0v-2.09h-.13Z"/>
        <path class="cls-112" d="M289.65,84.28c-.47-4.01-2.26-7.77-5.14-10.66l-53.93-53.93c-3.38-3.38-7.95-5.27-12.72-5.27h0s0,0-.01,0H58.73c-10.68,0-19.33,8.66-19.33,19.33v292.91c0,10.68,8.66,19.33,19.33,19.33h211.71c10.68,0,19.33-8.66,19.33-19.33V86.37h0v-2.09h-.13Z"/>
        <path class="cls-86" d="M289.57,84.19c-.47-4.01-2.26-7.77-5.14-10.66l-53.93-53.93c-3.38-3.38-7.95-5.27-12.72-5.27h0s0,0,0,0H58.66c-10.68,0-19.33,8.66-19.33,19.33v292.91c0,10.68,8.66,19.33,19.33,19.33h211.71c10.68,0,19.33-8.66,19.33-19.33V86.28h0v-2.09h-.13Z"/>
        <path class="cls-94" d="M289.5,84.1c-.47-4.01-2.26-7.77-5.14-10.66l-53.93-53.93c-3.38-3.38-7.95-5.27-12.72-5.27h0s0,0,0,0H58.58c-10.68,0-19.33,8.66-19.33,19.33v292.91c0,10.68,8.66,19.33,19.33,19.33h211.71c10.68,0,19.33-8.66,19.33-19.33V86.19h0v-2.09h-.13Z"/>
        <path class="cls-34" d="M289.42,84.02c-.47-4.01-2.26-7.77-5.14-10.66l-53.93-53.93c-3.38-3.38-7.95-5.27-12.72-5.27h0s0,0-.01,0H58.51c-10.68,0-19.33,8.66-19.33,19.33v292.91c0,10.68,8.66,19.33,19.33,19.33h211.71c10.68,0,19.33-8.66,19.33-19.33V86.11h0v-2.09h-.13Z"/>
        <path class="cls-40" d="M289.35,83.93c-.47-4.01-2.26-7.77-5.14-10.66l-53.93-53.93c-3.38-3.38-7.95-5.27-12.72-5.27h0s0,0,0,0H58.44c-10.68,0-19.33,8.66-19.33,19.33v292.91c0,10.68,8.66,19.33,19.33,19.33h211.71c10.68,0,19.33-8.66,19.33-19.33V86.02h0v-2.09h-.13Z"/>
        <path class="cls-205" d="M289.28,83.84c-.47-4.01-2.26-7.77-5.14-10.66l-53.93-53.93c-3.38-3.38-7.95-5.27-12.72-5.27h0s0,0,0,0H58.36c-10.68,0-19.33,8.66-19.33,19.33v292.91c0,10.68,8.66,19.33,19.33,19.33h211.71c10.68,0,19.33-8.66,19.33-19.33V85.93h0v-2.09h-.13Z"/>
        <path class="cls-199" d="M289.2,83.76c-.47-4.01-2.26-7.77-5.14-10.66l-53.93-53.93c-3.38-3.38-7.95-5.27-12.72-5.27h0s0,0,0,0H58.29c-10.68,0-19.33,8.66-19.33,19.33v292.91c0,10.68,8.66,19.33,19.33,19.33h211.71c10.68,0,19.33-8.66,19.33-19.33V85.85h0v-2.09h-.13Z"/>
        <path class="cls-92" d="M289.13,83.67c-.47-4.01-2.26-7.77-5.14-10.66l-53.93-53.93c-3.38-3.38-7.95-5.27-12.72-5.27h0s0,0-.01,0H58.21c-10.68,0-19.33,8.66-19.33,19.33v292.91c0,10.68,8.66,19.33,19.33,19.33h211.71c10.68,0,19.33-8.66,19.33-19.33V85.76h0v-2.09h-.13Z"/>
        <path class="cls-32" d="M289.05,83.59c-.47-4.01-2.26-7.77-5.14-10.66l-53.93-53.93c-3.38-3.38-7.95-5.27-12.72-5.27h0s0,0,0,0H58.14c-10.68,0-19.33,8.66-19.33,19.33v292.91c0,10.68,8.66,19.33,19.33,19.33h211.71c10.68,0,19.33-8.66,19.33-19.33V85.67h0v-2.09h-.13Z"/>
        <path class="cls-69" d="M288.98,83.5c-.47-4.01-2.26-7.77-5.14-10.66l-53.93-53.93c-3.38-3.38-7.95-5.27-12.72-5.27h0s0,0,0,0H58.06c-10.68,0-19.33,8.66-19.33,19.33v292.91c0,10.68,8.66,19.33,19.33,19.33h211.71c10.68,0,19.33-8.66,19.33-19.33V85.59h0v-2.09h-.13Z"/>
        <path class="cls-153" d="M288.9,83.41c-.47-4.01-2.26-7.77-5.14-10.66l-53.93-53.93c-3.38-3.38-7.95-5.27-12.72-5.27h0s0,0-.01,0H57.99c-10.68,0-19.33,8.66-19.33,19.33v292.91c0,10.68,8.66,19.33,19.33,19.33h211.71c10.68,0,19.33-8.66,19.33-19.33V85.5h0v-2.09h-.13Z"/>
        <path class="cls-6" d="M288.83,83.33c-.47-4.01-2.26-7.77-5.14-10.66l-53.93-53.93c-3.38-3.38-7.95-5.27-12.72-5.27h0s0,0-.01,0H57.92c-10.68,0-19.33,8.66-19.33,19.33v292.91c0,10.68,8.66,19.33,19.33,19.33h211.71c10.68,0,19.33-8.66,19.33-19.33V85.42h0v-2.09h-.13Z"/>
        <path class="cls-47" d="M288.76,83.24c-.47-4.01-2.26-7.77-5.14-10.66l-53.93-53.93c-3.38-3.38-7.95-5.27-12.72-5.27h0s0,0,0,0H57.84c-10.68,0-19.33,8.66-19.33,19.33v292.91c0,10.68,8.66,19.33,19.33,19.33h211.71c10.68,0,19.33-8.66,19.33-19.33V85.33h0v-2.09h-.13Z"/>
        <path class="cls-67" d="M288.68,83.15c-.47-4.01-2.26-7.77-5.14-10.66l-53.93-53.93c-3.38-3.38-7.95-5.27-12.72-5.27h0s0,0,0,0H57.77c-10.68,0-19.33,8.66-19.33,19.33v292.91c0,10.68,8.66,19.33,19.33,19.33h211.71c10.68,0,19.33-8.66,19.33-19.33V85.24h0v-2.09h-.13Z"/>
        <path class="cls-129" d="M288.61,83.07c-.47-4.01-2.26-7.77-5.14-10.66l-53.93-53.93c-3.38-3.38-7.95-5.27-12.72-5.27h0s0,0-.01,0H57.69c-10.68,0-19.33,8.66-19.33,19.33v292.91c0,10.68,8.66,19.33,19.33,19.33h211.71c10.68,0,19.33-8.66,19.33-19.33V85.16h0v-2.09h-.13Z"/>
        <path class="cls-183" d="M288.53,82.98c-.47-4.01-2.26-7.77-5.14-10.66l-53.93-53.93c-3.38-3.38-7.95-5.27-12.72-5.27h0s0,0,0,0H57.62c-10.68,0-19.33,8.66-19.33,19.33v292.91c0,10.68,8.66,19.33,19.33,19.33h211.71c10.68,0,19.33-8.66,19.33-19.33V85.07h0v-2.09h-.13Z"/>
        <path class="cls-188" d="M288.46,82.89c-.47-4.01-2.26-7.77-5.14-10.66l-53.93-53.93c-3.38-3.38-7.95-5.27-12.72-5.27h0s0,0-.01,0H57.55c-10.68,0-19.33,8.66-19.33,19.33v292.91c0,10.68,8.66,19.33,19.33,19.33h211.71c10.68,0,19.33-8.66,19.33-19.33V84.98h0v-2.09h-.13Z"/>
        <path class="cls-213" d="M288.39,82.81c-.47-4.01-2.26-7.77-5.14-10.66l-53.93-53.93c-3.38-3.38-7.95-5.27-12.72-5.27h0s0,0,0,0H57.47c-10.68,0-19.33,8.66-19.33,19.33v292.91c0,10.68,8.66,19.33,19.33,19.33h211.71c10.68,0,19.33-8.66,19.33-19.33V84.9h0v-2.09h-.13Z"/>
        <path class="cls-245" d="M288.31,82.72c-.47-4.01-2.26-7.77-5.14-10.66l-53.93-53.93c-3.38-3.38-7.95-5.27-12.72-5.27h0s0,0,0,0H57.4c-10.68,0-19.33,8.66-19.33,19.33v292.91c0,10.68,8.66,19.33,19.33,19.33h211.71c10.68,0,19.33-8.66,19.33-19.33V84.81h0v-2.09h-.13Z"/>
        <path class="cls-154" d="M288.24,82.64c-.47-4.01-2.26-7.77-5.14-10.66l-53.93-53.93c-3.38-3.38-7.95-5.27-12.72-5.27h0s0,0,0,0H57.32c-10.68,0-19.33,8.66-19.33,19.33v292.91c0,10.68,8.66,19.33,19.33,19.33h211.71c10.68,0,19.33-8.66,19.33-19.33V84.72h0v-2.09h-.13Z"/>
        <path class="cls-105" d="M288.16,82.55c-.47-4.01-2.26-7.77-5.14-10.66l-53.93-53.93c-3.38-3.38-7.95-5.27-12.72-5.27h0s0,0,0,0H57.25c-10.68,0-19.33,8.66-19.33,19.33v292.91c0,10.68,8.66,19.33,19.33,19.33h211.71c10.68,0,19.33-8.66,19.33-19.33V84.64h0v-2.09h-.13Z"/>
        <path class="cls-35" d="M288.09,82.46c-.47-4.01-2.26-7.77-5.14-10.66l-53.93-53.93c-3.38-3.38-7.95-5.27-12.72-5.27h0s0,0,0,0H57.17c-10.68,0-19.33,8.66-19.33,19.33v292.91c0,10.68,8.66,19.33,19.33,19.33h211.71c10.68,0,19.33-8.66,19.33-19.33V84.55h0v-2.09h-.13Z"/>
        <path class="cls-89" d="M288.02,82.38c-.47-4.01-2.26-7.77-5.14-10.66l-53.93-53.93c-3.38-3.38-7.95-5.27-12.72-5.27h0s0,0,0,0H57.1c-10.68,0-19.33,8.66-19.33,19.33v292.91c0,10.68,8.66,19.33,19.33,19.33h211.71c10.68,0,19.33-8.66,19.33-19.33V84.47h0v-2.09h-.13Z"/>
        <path class="cls-30" d="M287.94,82.29c-.47-4.01-2.26-7.77-5.14-10.66l-53.93-53.93c-3.38-3.38-7.95-5.27-12.72-5.27h0s0,0,0,0H57.03c-10.68,0-19.33,8.66-19.33,19.33v292.91c0,10.68,8.66,19.33,19.33,19.33h211.71c10.68,0,19.33-8.66,19.33-19.33V84.38h0v-2.09h-.13Z"/>
        <path class="cls-173" d="M287.87,82.2c-.47-4.01-2.26-7.77-5.14-10.66l-53.93-53.93c-3.38-3.38-7.95-5.27-12.72-5.27h0s0,0,0,0H56.95c-10.68,0-19.33,8.66-19.33,19.33v292.91c0,10.68,8.66,19.33,19.33,19.33h211.71c10.68,0,19.33-8.66,19.33-19.33V84.29h0v-2.09h-.13Z"/>
        <path class="cls-155" d="M287.79,82.12c-.47-4.01-2.26-7.77-5.14-10.66l-53.93-53.93c-3.38-3.38-7.95-5.27-12.72-5.27h0s0,0,0,0H56.88c-10.68,0-19.33,8.66-19.33,19.33v292.91c0,10.68,8.66,19.33,19.33,19.33h211.71c10.68,0,19.33-8.66,19.33-19.33V84.21h0v-2.09h-.13Z"/>
        <path class="cls-216" d="M287.72,82.03c-.47-4.01-2.26-7.77-5.14-10.66l-53.93-53.93c-3.38-3.38-7.95-5.27-12.72-5.27h0s0,0,0,0H56.8c-10.68,0-19.33,8.66-19.33,19.33v292.91c0,10.68,8.66,19.33,19.33,19.33h211.71c10.68,0,19.33-8.66,19.33-19.33V84.12h0v-2.09h-.13Z"/>
        <path class="cls-128" d="M287.64,81.94c-.47-4.01-2.26-7.77-5.14-10.66l-53.93-53.93c-3.38-3.38-7.95-5.27-12.72-5.27h0s0,0,0,0H56.73c-10.68,0-19.33,8.66-19.33,19.33v292.91c0,10.68,8.66,19.33,19.33,19.33h211.71c10.68,0,19.33-8.66,19.33-19.33V84.03h0v-2.09h-.13Z"/>
        <path class="cls-106" d="M287.57,81.86c-.47-4.01-2.26-7.77-5.14-10.66l-53.93-53.93c-3.38-3.38-7.95-5.27-12.72-5.27h0s0,0,0,0H56.66c-10.68,0-19.33,8.66-19.33,19.33v292.91c0,10.68,8.66,19.33,19.33,19.33h211.71c10.68,0,19.33-8.66,19.33-19.33V83.95h0v-2.09h-.13Z"/>
        <path class="cls-258" d="M287.5,81.77c-.47-4.01-2.26-7.77-5.14-10.66l-53.93-53.93c-3.38-3.38-7.95-5.27-12.72-5.27h0s0,0-.01,0H56.58c-10.68,0-19.33,8.66-19.33,19.33v292.91c0,10.68,8.66,19.33,19.33,19.33h211.71c10.68,0,19.33-8.66,19.33-19.33V83.86h0v-2.09h-.13Z"/>
        <path class="cls-182" d="M287.42,81.69c-.47-4.01-2.26-7.77-5.14-10.66l-53.93-53.93c-3.38-3.38-7.95-5.27-12.72-5.27h0s0,0,0,0H56.51c-10.68,0-19.33,8.66-19.33,19.33v292.91c0,10.68,8.66,19.33,19.33,19.33h211.71c10.68,0,19.33-8.66,19.33-19.33V83.78h0v-2.09h-.13Z"/>
        <path class="cls-79" d="M287.35,81.6c-.47-4.01-2.26-7.77-5.14-10.66l-53.93-53.93c-3.38-3.38-7.95-5.27-12.72-5.27h0s0,0-.01,0H56.43c-10.68,0-19.33,8.66-19.33,19.33v292.91c0,10.68,8.66,19.33,19.33,19.33h211.71c10.68,0,19.33-8.66,19.33-19.33V83.69h0v-2.09h-.13Z"/>
        <path class="cls-51" d="M287.27,81.51c-.47-4.01-2.26-7.77-5.14-10.66l-53.93-53.93c-3.38-3.38-7.95-5.27-12.72-5.27h0s0,0,0,0H56.36c-10.68,0-19.33,8.66-19.33,19.33v292.91c0,10.68,8.66,19.33,19.33,19.33h211.71c10.68,0,19.33-8.66,19.33-19.33V83.6h0v-2.09h-.13Z"/>
        <path class="cls-229" d="M287.2,81.43c-.47-4.01-2.26-7.77-5.14-10.66l-53.93-53.93c-3.38-3.38-7.95-5.27-12.72-5.27h0s0,0-.01,0H56.28c-10.68,0-19.33,8.66-19.33,19.33v292.91c0,10.68,8.66,19.33,19.33,19.33h211.71c10.68,0,19.33-8.66,19.33-19.33V83.52h0v-2.09h-.13Z"/>
        <path class="cls-110" d="M287.13,81.34c-.47-4.01-2.26-7.77-5.14-10.66l-53.93-53.93c-3.38-3.38-7.95-5.27-12.72-5.27h0s0,0,0,0H56.21c-10.68,0-19.33,8.66-19.33,19.33v292.91c0,10.68,8.66,19.33,19.33,19.33h211.71c10.68,0,19.33-8.66,19.33-19.33V83.43h0v-2.09h-.13Z"/>
        <path class="cls-248" d="M287.05,81.25c-.47-4.01-2.26-7.77-5.14-10.66l-53.93-53.93c-3.38-3.38-7.95-5.27-12.72-5.27h0s0,0-.01,0H56.14c-10.68,0-19.33,8.66-19.33,19.33v292.91c0,10.68,8.66,19.33,19.33,19.33h211.71c10.68,0,19.33-8.66,19.33-19.33V83.34h0v-2.09h-.13Z"/>
        <path class="cls-166" d="M286.98,81.17c-.47-4.01-2.26-7.77-5.14-10.66l-53.93-53.93c-3.38-3.38-7.95-5.27-12.72-5.27h0s0,0,0,0H56.06c-10.68,0-19.33,8.66-19.33,19.33v292.91c0,10.68,8.66,19.33,19.33,19.33h211.71c10.68,0,19.33-8.66,19.33-19.33V83.26h0v-2.09h-.13Z"/>
        <path class="cls-7" d="M286.9,81.08c-.47-4.01-2.26-7.77-5.14-10.66l-53.93-53.93c-3.38-3.38-7.95-5.27-12.72-5.27h0s0,0-.01,0H55.99c-10.68,0-19.33,8.66-19.33,19.33v292.91c0,10.68,8.66,19.33,19.33,19.33h211.71c10.68,0,19.33-8.66,19.33-19.33V83.17h0v-2.09h-.13Z"/>
        <path class="cls-72" d="M286.83,81c-.47-4.01-2.26-7.77-5.14-10.66l-53.93-53.93c-3.38-3.38-7.95-5.27-12.72-5.27h0s0,0,0,0H55.91c-10.68,0-19.33,8.66-19.33,19.33v292.91c0,10.68,8.66,19.33,19.33,19.33h211.71c10.68,0,19.33-8.66,19.33-19.33V83.08h0v-2.09h-.13Z"/>
        <path class="cls-252" d="M286.75,80.91c-.47-4.01-2.26-7.77-5.14-10.66l-53.93-53.93c-3.38-3.38-7.95-5.27-12.72-5.27h0s0,0-.01,0H55.84c-10.68,0-19.33,8.66-19.33,19.33v292.91c0,10.68,8.66,19.33,19.33,19.33h211.71c10.68,0,19.33-8.66,19.33-19.33V83h0v-2.09h-.13Z"/>
        <path class="cls-26" d="M286.68,80.82c-.47-4.01-2.26-7.77-5.14-10.66l-53.93-53.93c-3.38-3.38-7.95-5.27-12.72-5.27h0s0,0,0,0H55.77c-10.68,0-19.33,8.66-19.33,19.33v292.91c0,10.68,8.66,19.33,19.33,19.33h211.71c10.68,0,19.33-8.66,19.33-19.33V82.91h0v-2.09h-.13Z"/>
        <path class="cls-175" d="M286.61,80.74c-.47-4.01-2.26-7.77-5.14-10.66l-53.93-53.93c-3.38-3.38-7.95-5.27-12.72-5.27h0s0,0-.01,0H55.69c-10.68,0-19.33,8.66-19.33,19.33v292.91c0,10.68,8.66,19.33,19.33,19.33h211.71c10.68,0,19.33-8.66,19.33-19.33V82.83h0v-2.09h-.13Z"/>
        <path class="cls-224" d="M286.53,80.65c-.47-4.01-2.26-7.77-5.14-10.66l-53.93-53.93c-3.38-3.38-7.95-5.27-12.72-5.27h0s0,0,0,0H55.62c-10.68,0-19.33,8.66-19.33,19.33v292.91c0,10.68,8.66,19.33,19.33,19.33h211.71c10.68,0,19.33-8.66,19.33-19.33V82.74h0v-2.09h-.13Z"/>
        <path class="cls-87" d="M286.46,80.56c-.47-4.01-2.26-7.77-5.14-10.66l-53.93-53.93c-3.38-3.38-7.95-5.27-12.72-5.27h0s0,0-.01,0H55.54c-10.68,0-19.33,8.66-19.33,19.33v292.91c0,10.68,8.66,19.33,19.33,19.33h211.71c10.68,0,19.33-8.66,19.33-19.33V82.65h0v-2.09h-.13Z"/>
        <path class="cls-150" d="M286.38,80.48c-.47-4.01-2.26-7.77-5.14-10.66l-53.93-53.93c-3.38-3.38-7.95-5.27-12.72-5.27h0s0,0,0,0H55.47c-10.68,0-19.33,8.66-19.33,19.33v292.91c0,10.68,8.66,19.33,19.33,19.33h211.71c10.68,0,19.33-8.66,19.33-19.33V82.57h0v-2.09h-.13Z"/>
        <path class="cls-137" d="M286.31,80.39c-.47-4.01-2.26-7.77-5.14-10.66l-53.93-53.93c-3.38-3.38-7.95-5.27-12.72-5.27h0s0,0-.01,0H55.4c-10.68,0-19.33,8.66-19.33,19.33v292.91c0,10.68,8.66,19.33,19.33,19.33h211.71c10.68,0,19.33-8.66,19.33-19.33V82.48h0v-2.09h-.13Z"/>
        <path class="cls-12" d="M286.24,80.3c-.47-4.01-2.26-7.77-5.14-10.66l-53.93-53.93c-3.38-3.38-7.95-5.27-12.72-5.27h0s0,0,0,0H55.32c-10.68,0-19.33,8.66-19.33,19.33v292.91c0,10.68,8.66,19.33,19.33,19.33h211.71c10.68,0,19.33-8.66,19.33-19.33V82.39h0v-2.09h-.13Z"/>
        <path class="cls-189" d="M286.16,80.22c-.47-4.01-2.26-7.77-5.14-10.66l-53.93-53.93c-3.38-3.38-7.95-5.27-12.72-5.27h0s0,0-.01,0H55.25c-10.68,0-19.33,8.66-19.33,19.33v292.91c0,10.68,8.66,19.33,19.33,19.33h211.71c10.68,0,19.33-8.66,19.33-19.33V82.31h0v-2.09h-.13Z"/>
        <path class="cls-59" d="M286.09,80.13c-.47-4.01-2.26-7.77-5.14-10.66l-53.93-53.93c-3.38-3.38-7.95-5.27-12.72-5.27h0s0,0,0,0H55.17c-10.68,0-19.33,8.66-19.33,19.33v292.91c0,10.68,8.66,19.33,19.33,19.33h211.71c10.68,0,19.33-8.66,19.33-19.33V82.22h0v-2.09h-.13Z"/>
        <path class="cls-254" d="M286.01,80.05c-.47-4.01-2.26-7.77-5.14-10.66l-53.93-53.93c-3.38-3.38-7.95-5.27-12.72-5.27h0s0,0-.01,0H55.1c-10.68,0-19.33,8.66-19.33,19.33v292.91c0,10.68,8.66,19.33,19.33,19.33h211.71c10.68,0,19.33-8.66,19.33-19.33V82.13h0v-2.09h-.13Z"/>
        <path class="cls-140" d="M285.94,79.96c-.47-4.01-2.26-7.77-5.14-10.66l-53.93-53.93c-3.38-3.38-7.95-5.27-12.72-5.27h0s0,0-.01,0H55.02c-10.68,0-19.33,8.66-19.33,19.33v292.91c0,10.68,8.66,19.33,19.33,19.33h211.71c10.68,0,19.33-8.66,19.33-19.33V82.05h0v-2.09h-.13Z"/>
        <path class="cls-61" d="M285.87,79.87c-.47-4.01-2.26-7.77-5.14-10.66l-53.93-53.93c-3.38-3.38-7.95-5.27-12.72-5.27h0s0,0-.01,0H54.95c-10.68,0-19.33,8.66-19.33,19.33v292.91c0,10.68,8.66,19.33,19.33,19.33h211.71c10.68,0,19.33-8.66,19.33-19.33V81.96h0v-2.09h-.13Z"/>
        <path class="cls-14" d="M285.79,79.79c-.47-4.01-2.26-7.77-5.14-10.66l-53.93-53.93c-3.38-3.38-7.95-5.27-12.72-5.27h0s0,0-.01,0H54.88c-10.68,0-19.33,8.66-19.33,19.33v292.91c0,10.68,8.66,19.33,19.33,19.33h211.71c10.68,0,19.33-8.66,19.33-19.33V81.88h0v-2.09h-.13Z"/>
        <path class="cls-46" d="M285.72,79.7c-.47-4.01-2.26-7.77-5.14-10.66l-53.93-53.93c-3.38-3.38-7.95-5.27-12.72-5.27h0s0,0-.01,0H54.8c-10.68,0-19.33,8.66-19.33,19.33v292.91c0,10.68,8.66,19.33,19.33,19.33h211.71c10.68,0,19.33-8.66,19.33-19.33V81.79h0v-2.09h-.13Z"/>
        <path class="cls-250" d="M285.64,79.61c-.47-4.01-2.26-7.77-5.14-10.66l-53.93-53.93c-3.38-3.38-7.95-5.27-12.72-5.27h0s0,0-.01,0H54.73c-10.68,0-19.33,8.66-19.33,19.33v292.91c0,10.68,8.66,19.33,19.33,19.33h211.71c10.68,0,19.33-8.66,19.33-19.33V81.7h0v-2.09h-.13Z"/>
        <path class="cls-16" d="M285.57,79.53c-.47-4.01-2.26-7.77-5.14-10.66l-53.93-53.93c-3.38-3.38-7.95-5.27-12.72-5.27h0s0,0-.01,0H54.65c-10.68,0-19.33,8.66-19.33,19.33v292.91c0,10.68,8.66,19.33,19.33,19.33h211.71c10.68,0,19.33-8.66,19.33-19.33V81.62h0v-2.09h-.13Z"/>
        <path class="cls-152" d="M285.49,79.44c-.47-4.01-2.26-7.77-5.14-10.66l-53.93-53.93c-3.38-3.38-7.95-5.27-12.72-5.27h0s0,0-.01,0H54.58c-10.68,0-19.33,8.66-19.33,19.33v292.91c0,10.68,8.66,19.33,19.33,19.33h211.71c10.68,0,19.33-8.66,19.33-19.33V81.53h0v-2.09h-.13Z"/>
        <path class="cls-197" d="M285.42,79.35c-.47-4.01-2.26-7.77-5.14-10.66l-53.93-53.93c-3.38-3.38-7.95-5.27-12.72-5.27h0s0,0,0,0H54.51c-10.68,0-19.33,8.66-19.33,19.33v292.91c0,10.68,8.66,19.33,19.33,19.33h211.71c10.68,0,19.33-8.66,19.33-19.33V81.44h0v-2.09h-.13Z"/>
        <path class="cls-143" d="M285.35,79.27c-.47-4.01-2.26-7.77-5.14-10.66l-53.93-53.93c-3.38-3.38-7.95-5.27-12.72-5.27h0s0,0-.01,0H54.43c-10.68,0-19.33,8.66-19.33,19.33v292.91c0,10.68,8.66,19.33,19.33,19.33h211.71c10.68,0,19.33-8.66,19.33-19.33V81.36h0v-2.09h-.13Z"/>
        <path class="cls-171" d="M285.27,79.18c-.47-4.01-2.26-7.77-5.14-10.66l-53.93-53.93c-3.38-3.38-7.95-5.27-12.72-5.27h0s0,0,0,0H54.36c-10.68,0-19.33,8.66-19.33,19.33v292.91c0,10.68,8.66,19.33,19.33,19.33h211.71c10.68,0,19.33-8.66,19.33-19.33V81.27h0v-2.09h-.13Z"/>
        <path class="cls-93" d="M285.2,79.1c-.47-4.01-2.26-7.77-5.14-10.66l-53.93-53.93c-3.38-3.38-7.95-5.27-12.72-5.27h0s0,0-.01,0H54.28c-10.68,0-19.33,8.66-19.33,19.33v292.91c0,10.68,8.66,19.33,19.33,19.33h211.71c10.68,0,19.33-8.66,19.33-19.33V81.19h0v-2.09h-.13Z"/>
        <path class="cls-3" d="M285.12,79.01c-.47-4.01-2.26-7.77-5.14-10.66l-53.93-53.93c-3.38-3.38-7.95-5.27-12.72-5.27h0s0,0,0,0H54.21c-10.68,0-19.33,8.66-19.33,19.33v292.91c0,10.68,8.66,19.33,19.33,19.33h211.71c10.68,0,19.33-8.66,19.33-19.33V81.1h0v-2.09h-.13Z"/>
        <path class="cls-52" d="M285.05,78.92c-.47-4.01-2.26-7.77-5.14-10.66l-53.93-53.93c-3.38-3.38-7.95-5.27-12.72-5.27h0s0,0-.01,0H54.13c-10.68,0-19.33,8.66-19.33,19.33v292.91c0,10.68,8.66,19.33,19.33,19.33h211.71c10.68,0,19.33-8.66,19.33-19.33V81.01h0v-2.09h-.13Z"/>
        <path class="cls-260" d="M284.98,78.84c-.47-4.01-2.26-7.77-5.14-10.66l-53.93-53.93c-3.38-3.38-7.95-5.27-12.72-5.27h0s0,0,0,0H54.06c-10.68,0-19.33,8.66-19.33,19.33v292.91c0,10.68,8.66,19.33,19.33,19.33h211.71c10.68,0,19.33-8.66,19.33-19.33V80.93h0v-2.09h-.13Z"/>
        <path class="cls-257" d="M284.9,78.75c-.47-4.01-2.26-7.77-5.14-10.66l-53.93-53.93c-3.38-3.38-7.95-5.27-12.72-5.27h0s0,0-.01,0H53.99c-10.68,0-19.33,8.66-19.33,19.33v292.91c0,10.68,8.66,19.33,19.33,19.33h211.71c10.68,0,19.33-8.66,19.33-19.33V80.84h0v-2.09h-.13Z"/>
        <path class="cls-180" d="M284.83,78.66c-.47-4.01-2.26-7.77-5.14-10.66l-53.93-53.93c-3.38-3.38-7.95-5.27-12.72-5.27h0s0,0,0,0H53.91c-10.68,0-19.33,8.66-19.33,19.33v292.91c0,10.68,8.66,19.33,19.33,19.33h211.71c10.68,0,19.33-8.66,19.33-19.33V80.75h0v-2.09h-.13Z"/>
        <path class="cls-215" d="M284.75,78.58c-.47-4.01-2.26-7.77-5.14-10.66l-53.93-53.93c-3.38-3.38-7.95-5.27-12.72-5.27h0s0,0-.01,0H53.84c-10.68,0-19.33,8.66-19.33,19.33v292.91c0,10.68,8.66,19.33,19.33,19.33h211.71c10.68,0,19.33-8.66,19.33-19.33V80.67h0v-2.09h-.13Z"/>
        <path class="cls-4" d="M284.68,78.49c-.47-4.01-2.26-7.77-5.14-10.66l-53.93-53.93c-3.38-3.38-7.95-5.27-12.72-5.27h0s0,0,0,0H53.76c-10.68,0-19.33,8.66-19.33,19.33v292.91c0,10.68,8.66,19.33,19.33,19.33h211.71c10.68,0,19.33-8.66,19.33-19.33V80.58h0v-2.09h-.13Z"/>
        <path class="cls-232" d="M284.6,78.4c-.47-4.01-2.26-7.77-5.14-10.66l-53.93-53.93c-3.38-3.38-7.95-5.27-12.72-5.27h0s0,0-.01,0H53.69c-10.68,0-19.33,8.66-19.33,19.33v292.91c0,10.68,8.66,19.33,19.33,19.33h211.71c10.68,0,19.33-8.66,19.33-19.33V80.49h0v-2.09h-.13Z"/>
        <path class="cls-239" d="M284.53,78.32c-.47-4.01-2.26-7.77-5.14-10.66l-53.93-53.93c-3.38-3.38-7.95-5.27-12.72-5.27h0s0,0,0,0H53.62c-10.68,0-19.33,8.66-19.33,19.33v292.91c0,10.68,8.66,19.33,19.33,19.33h211.71c10.68,0,19.33-8.66,19.33-19.33V80.41h0v-2.09h-.13Z"/>
        <path class="cls-256" d="M284.46,78.23c-.47-4.01-2.26-7.77-5.14-10.66l-53.93-53.93c-3.38-3.38-7.95-5.27-12.72-5.27h0s0,0-.01,0H53.54c-10.68,0-19.33,8.66-19.33,19.33v292.91c0,10.68,8.66,19.33,19.33,19.33h211.71c10.68,0,19.33-8.66,19.33-19.33V80.32h0v-2.09h-.13Z"/>
        <path class="cls-80" d="M284.38,78.15c-.47-4.01-2.26-7.77-5.14-10.66l-53.93-53.93c-3.38-3.38-7.95-5.27-12.72-5.27h0s0,0-.01,0H53.47c-10.68,0-19.33,8.66-19.33,19.33v292.91c0,10.68,8.66,19.33,19.33,19.33h211.71c10.68,0,19.33-8.66,19.33-19.33V80.24h0v-2.09h-.13Z"/>
        <path class="cls-28" d="M284.31,78.06c-.47-4.01-2.26-7.77-5.14-10.66l-53.93-53.93c-3.38-3.38-7.95-5.27-12.72-5.27h0s0,0-.01,0H53.39c-10.68,0-19.33,8.66-19.33,19.33v292.91c0,10.68,8.66,19.33,19.33,19.33h211.71c10.68,0,19.33-8.66,19.33-19.33V80.15h0v-2.09h-.13Z"/>
        <path class="cls-201" d="M284.23,77.97c-.47-4.01-2.26-7.77-5.14-10.66l-53.93-53.93c-3.38-3.38-7.95-5.27-12.72-5.27h0s0,0-.01,0H53.32c-10.68,0-19.33,8.66-19.33,19.33v292.91c0,10.68,8.66,19.33,19.33,19.33h211.71c10.68,0,19.33-8.66,19.33-19.33V80.06h0v-2.09h-.13Z"/>
        <path class="cls-66" d="M284.16,77.89c-.47-4.01-2.26-7.77-5.14-10.66l-53.93-53.93c-3.38-3.38-7.95-5.27-12.72-5.27h0s0,0-.01,0H53.25c-10.68,0-19.33,8.66-19.33,19.33v292.91c0,10.68,8.66,19.33,19.33,19.33h211.71c10.68,0,19.33-8.66,19.33-19.33V79.98h0v-2.09h-.13Z"/>
        <path class="cls-76" d="M284.09,77.8c-.47-4.01-2.26-7.77-5.14-10.66l-53.93-53.93c-3.38-3.38-7.95-5.27-12.72-5.27h0s0,0-.01,0H53.17c-10.68,0-19.33,8.66-19.33,19.33v292.91c0,10.68,8.66,19.33,19.33,19.33h211.71c10.68,0,19.33-8.66,19.33-19.33V79.89h0v-2.09h-.13Z"/>
        <path class="cls-177" d="M284.01,77.71c-.47-4.01-2.26-7.77-5.14-10.66l-53.93-53.93c-3.38-3.38-7.95-5.27-12.72-5.27h0s0,0,0,0H53.1c-10.68,0-19.33,8.66-19.33,19.33v292.91c0,10.68,8.66,19.33,19.33,19.33h211.71c10.68,0,19.33-8.66,19.33-19.33V79.8h0v-2.09h-.13Z"/>
        <path class="cls-21" d="M283.94,77.63c-.47-4.01-2.26-7.77-5.14-10.66l-53.93-53.93c-3.38-3.38-7.95-5.27-12.72-5.27h0s0,0-.01,0H53.02c-10.68,0-19.33,8.66-19.33,19.33v292.91c0,10.68,8.66,19.33,19.33,19.33h211.71c10.68,0,19.33-8.66,19.33-19.33V79.72h0v-2.09h-.13Z"/>
        <path class="cls-113" d="M283.86,77.54c-.47-4.01-2.26-7.77-5.14-10.66l-53.93-53.93c-3.38-3.38-7.95-5.27-12.72-5.27h0s0,0-.01,0H52.95c-10.68,0-19.33,8.66-19.33,19.33v292.91c0,10.68,8.66,19.33,19.33,19.33h211.71c10.68,0,19.33-8.66,19.33-19.33V79.63h0v-2.09h-.13Z"/>
        <path class="cls-104" d="M283.79,77.46c-.47-4.01-2.26-7.77-5.14-10.66l-53.93-53.93c-3.38-3.38-7.95-5.27-12.72-5.27h0s0,0-.01,0H52.87c-10.68,0-19.33,8.66-19.33,19.33v292.91c0,10.68,8.66,19.33,19.33,19.33h211.71c10.68,0,19.33-8.66,19.33-19.33V79.54h0v-2.09h-.13Z"/>
        <path class="cls-141" d="M283.71,77.37c-.47-4.01-2.26-7.77-5.14-10.66l-53.93-53.93c-3.38-3.38-7.95-5.27-12.72-5.27h0s0,0,0,0H52.8c-10.68,0-19.33,8.66-19.33,19.33v292.91c0,10.68,8.66,19.33,19.33,19.33h211.71c10.68,0,19.33-8.66,19.33-19.33V79.46h0v-2.09h-.13Z"/>
        <path class="cls-223" d="M283.64,77.28c-.47-4.01-2.26-7.77-5.14-10.66l-53.93-53.93c-3.38-3.38-7.95-5.27-12.72-5.27h0s0,0-.01,0H52.73c-10.68,0-19.33,8.66-19.33,19.33v292.91c0,10.68,8.66,19.33,19.33,19.33h211.71c10.68,0,19.33-8.66,19.33-19.33V79.37h0v-2.09h-.13Z"/>
        <path class="cls-102" d="M283.57,77.2c-.47-4.01-2.26-7.77-5.14-10.66l-53.93-53.93c-3.38-3.38-7.95-5.27-12.72-5.27h0s0,0,0,0H52.65c-10.68,0-19.33,8.66-19.33,19.33v292.91c0,10.68,8.66,19.33,19.33,19.33h211.71c10.68,0,19.33-8.66,19.33-19.33V79.29h0v-2.09h-.13Z"/>
        <path class="cls-9" d="M283.49,77.11c-.47-4.01-2.26-7.77-5.14-10.66l-53.93-53.93c-3.38-3.38-7.95-5.27-12.72-5.27h0s0,0-.01,0H52.58c-10.68,0-19.33,8.66-19.33,19.33v292.91c0,10.68,8.66,19.33,19.33,19.33h211.71c10.68,0,19.33-8.66,19.33-19.33V79.2h0v-2.09h-.13Z"/>
        <path class="cls-136" d="M283.42,77.02c-.47-4.01-2.26-7.77-5.14-10.66l-53.93-53.93c-3.38-3.38-7.95-5.27-12.72-5.27h0s0,0,0,0H52.5c-10.68,0-19.33,8.66-19.33,19.33v292.91c0,10.68,8.66,19.33,19.33,19.33h211.71c10.68,0,19.33-8.66,19.33-19.33V79.11h0v-2.09h-.13Z"/>
        <path class="cls-41" d="M283.34,76.94c-.47-4.01-2.26-7.77-5.14-10.66l-53.93-53.93c-3.38-3.38-7.95-5.27-12.72-5.27h0s0,0-.01,0H52.43c-10.68,0-19.33,8.66-19.33,19.33v292.91c0,10.68,8.66,19.33,19.33,19.33h211.71c10.68,0,19.33-8.66,19.33-19.33V79.03h0v-2.09h-.13Z"/>
        <path class="cls-132" d="M283.27,76.85c-.47-4.01-2.26-7.77-5.14-10.66l-53.93-53.93c-3.38-3.38-7.95-5.27-12.72-5.27h0s0,0,0,0H52.36c-10.68,0-19.33,8.66-19.33,19.33v292.91c0,10.68,8.66,19.33,19.33,19.33h211.71c10.68,0,19.33-8.66,19.33-19.33V78.94h0v-2.09h-.13Z"/>
        <path class="cls-244" d="M283.2,76.76c-.47-4.01-2.26-7.77-5.14-10.66l-53.93-53.93c-3.38-3.38-7.95-5.27-12.72-5.27h0s0,0-.01,0H52.28c-10.68,0-19.33,8.66-19.33,19.33v292.91c0,10.68,8.66,19.33,19.33,19.33h211.71c10.68,0,19.33-8.66,19.33-19.33V78.85h0v-2.09h-.13Z"/>
        <path class="cls-203" d="M283.12,76.68c-.47-4.01-2.26-7.77-5.14-10.66l-53.93-53.93c-3.38-3.38-7.95-5.27-12.72-5.27h0s0,0,0,0H52.21c-10.68,0-19.33,8.66-19.33,19.33v292.91c0,10.68,8.66,19.33,19.33,19.33h211.71c10.68,0,19.33-8.66,19.33-19.33V78.77h0v-2.09h-.13Z"/>
        <path class="cls-73" d="M283.05,76.59c-.47-4.01-2.26-7.77-5.14-10.66l-53.93-53.93c-3.38-3.38-7.95-5.27-12.72-5.27h0s0,0-.01,0H52.13c-10.68,0-19.33,8.66-19.33,19.33v292.91c0,10.68,8.66,19.33,19.33,19.33h211.71c10.68,0,19.33-8.66,19.33-19.33V78.68h0v-2.09h-.13Z"/>
        <path class="cls-236" d="M282.97,76.51c-.47-4.01-2.26-7.77-5.14-10.66l-53.93-53.93c-3.38-3.38-7.95-5.27-12.72-5.27h0s0,0-.01,0H52.06c-10.68,0-19.33,8.66-19.33,19.33v292.91c0,10.68,8.66,19.33,19.33,19.33h211.71c10.68,0,19.33-8.66,19.33-19.33V78.6h0v-2.09h-.13Z"/>
        <path class="cls-18" d="M282.9,76.42c-.47-4.01-2.26-7.77-5.14-10.66l-53.93-53.93c-3.38-3.38-7.95-5.27-12.72-5.27h0s0,0-.01,0H51.98c-10.68,0-19.33,8.66-19.33,19.33v292.91c0,10.68,8.66,19.33,19.33,19.33h211.71c10.68,0,19.33-8.66,19.33-19.33V78.51h0v-2.09h-.13Z"/>
        <path class="cls-114" d="M282.83,76.33c-.47-4.01-2.26-7.77-5.14-10.66l-53.93-53.93c-3.38-3.38-7.95-5.27-12.72-5.27h0s0,0-.01,0H51.91c-10.68,0-19.33,8.66-19.33,19.33v292.91c0,10.68,8.66,19.33,19.33,19.33h211.71c10.68,0,19.33-8.66,19.33-19.33V78.42h0v-2.09h-.13Z"/>
        <path class="cls-71" d="M282.75,76.25c-.47-4.01-2.26-7.77-5.14-10.66l-53.93-53.93c-3.38-3.38-7.95-5.27-12.72-5.27h0s0,0-.01,0H51.84c-10.68,0-19.33,8.66-19.33,19.33v292.91c0,10.68,8.66,19.33,19.33,19.33h211.71c10.68,0,19.33-8.66,19.33-19.33V78.34h0v-2.09h-.13Z"/>
        <path class="cls-123" d="M282.68,76.16c-.47-4.01-2.26-7.77-5.14-10.66l-53.93-53.93c-3.38-3.38-7.95-5.27-12.72-5.27h0s0,0-.01,0H51.76c-10.68,0-19.33,8.66-19.33,19.33v292.91c0,10.68,8.66,19.33,19.33,19.33h211.71c10.68,0,19.33-8.66,19.33-19.33V78.25h0v-2.09h-.13Z"/>
        <path class="cls-165" d="M282.6,76.07c-.47-4.01-2.26-7.77-5.14-10.66l-53.93-53.93c-3.38-3.38-7.95-5.27-12.72-5.27h0s0,0-.01,0H51.69c-10.68,0-19.33,8.66-19.33,19.33v292.91c0,10.68,8.66,19.33,19.33,19.33h211.71c10.68,0,19.33-8.66,19.33-19.33V78.16h0v-2.09h-.13Z"/>
        <path class="cls-238" d="M282.53,75.99c-.47-4.01-2.26-7.77-5.14-10.66l-53.93-53.93c-3.38-3.38-7.95-5.27-12.72-5.27h0s0,0-.01,0H51.61c-10.68,0-19.33,8.66-19.33,19.33v292.91c0,10.68,8.66,19.33,19.33,19.33h211.71c10.68,0,19.33-8.66,19.33-19.33V78.08h0v-2.09h-.13Z"/>
        <path class="cls-82" d="M282.45,75.9c-.47-4.01-2.26-7.77-5.14-10.66l-53.93-53.93c-3.38-3.38-7.95-5.27-12.72-5.27h0s0,0-.01,0H51.54c-10.68,0-19.33,8.66-19.33,19.33v292.91c0,10.68,8.66,19.33,19.33,19.33h211.71c10.68,0,19.33-8.66,19.33-19.33V77.99h0v-2.09h-.13Z"/>
        <path class="cls-78" d="M282.38,75.81c-.47-4.01-2.26-7.77-5.14-10.66l-53.93-53.93c-3.38-3.38-7.95-5.27-12.72-5.27h0s0,0-.01,0H51.47c-10.68,0-19.33,8.66-19.33,19.33v292.91c0,10.68,8.66,19.33,19.33,19.33h211.71c10.68,0,19.33-8.66,19.33-19.33V77.9h0v-2.09h-.13Z"/>
        <path class="cls-88" d="M282.31,75.73c-.47-4.01-2.26-7.77-5.14-10.66l-53.93-53.93c-3.38-3.38-7.95-5.27-12.72-5.27h0s0,0,0,0H51.39c-10.68,0-19.33,8.66-19.33,19.33v292.91c0,10.68,8.66,19.33,19.33,19.33h211.71c10.68,0,19.33-8.66,19.33-19.33V77.82h0v-2.09h-.13Z"/>
        <path class="cls-100" d="M282.23,75.64c-.47-4.01-2.26-7.77-5.14-10.66l-53.93-53.93c-3.38-3.38-7.95-5.27-12.72-5.27h0s0,0-.01,0H51.32c-10.68,0-19.33,8.66-19.33,19.33v292.91c0,10.68,8.66,19.33,19.33,19.33h211.71c10.68,0,19.33-8.66,19.33-19.33V77.73h0v-2.09h-.13Z"/>
        <path class="cls-43" d="M282.16,75.56c-.47-4.01-2.26-7.77-5.14-10.66l-53.93-53.93c-3.38-3.38-7.95-5.27-12.72-5.27h0s0,0,0,0H51.24c-10.68,0-19.33,8.66-19.33,19.33v292.91c0,10.68,8.66,19.33,19.33,19.33h211.71c10.68,0,19.33-8.66,19.33-19.33V77.65h0v-2.09h-.13Z"/>
        <path class="cls-60" d="M282.08,75.47c-.47-4.01-2.26-7.77-5.14-10.66l-53.93-53.93c-3.38-3.38-7.95-5.27-12.72-5.27h0s0,0-.01,0H51.17c-10.68,0-19.33,8.66-19.33,19.33v292.91c0,10.68,8.66,19.33,19.33,19.33h211.71c10.68,0,19.33-8.66,19.33-19.33V77.56h0v-2.09h-.13Z"/>
        <path class="cls-207" d="M282.01,75.38c-.47-4.01-2.26-7.77-5.14-10.66l-53.93-53.93c-3.38-3.38-7.95-5.27-12.72-5.27h0s0,0,0,0H51.09c-10.68,0-19.33,8.66-19.33,19.33v292.91c0,10.68,8.66,19.33,19.33,19.33h211.71c10.68,0,19.33-8.66,19.33-19.33V77.47h0v-2.09h-.13Z"/>
        <path class="cls-49" d="M281.94,75.3c-.47-4.01-2.26-7.77-5.14-10.66l-53.93-53.93c-3.38-3.38-7.95-5.27-12.72-5.27h0s0,0-.01,0H51.02c-10.68,0-19.33,8.66-19.33,19.33v292.91c0,10.68,8.66,19.33,19.33,19.33h211.71c10.68,0,19.33-8.66,19.33-19.33V77.39h0v-2.09h-.13Z"/>
        <path class="cls-219" d="M281.86,75.21c-.47-4.01-2.26-7.77-5.14-10.66l-53.93-53.93c-3.38-3.38-7.95-5.27-12.72-5.27h0s0,0-.01,0H50.95c-10.68,0-19.33,8.66-19.33,19.33v292.91c0,10.68,8.66,19.33,19.33,19.33h211.71c10.68,0,19.33-8.66,19.33-19.33V77.3h0v-2.09h-.13Z"/>
        <path class="cls-64" d="M281.79,75.12c-.47-4.01-2.26-7.77-5.14-10.66l-53.93-53.93c-3.38-3.38-7.95-5.27-12.72-5.27h0s0,0-.01,0H50.87c-10.68,0-19.33,8.66-19.33,19.33v292.91c0,10.68,8.66,19.33,19.33,19.33h211.71c10.68,0,19.33-8.66,19.33-19.33V77.21h0v-2.09h-.13Z"/>
        <path class="cls-169" d="M281.71,75.04c-.47-4.01-2.26-7.77-5.14-10.66l-53.93-53.93c-3.38-3.38-7.95-5.27-12.72-5.27h0s0,0-.01,0H50.8c-10.68,0-19.33,8.66-19.33,19.33v292.91c0,10.68,8.66,19.33,19.33,19.33h211.71c10.68,0,19.33-8.66,19.33-19.33V77.13h0v-2.09h-.13Z"/>
        <path class="cls-174" d="M281.64,74.95c-.47-4.01-2.26-7.77-5.14-10.66l-53.93-53.93c-3.38-3.38-7.95-5.27-12.72-5.27h0s0,0-.01,0H50.72c-10.68,0-19.33,8.66-19.33,19.33v292.91c0,10.68,8.66,19.33,19.33,19.33h211.71c10.68,0,19.33-8.66,19.33-19.33V77.04h0v-2.09h-.13Z"/>
        <path class="cls-190" d="M281.56,74.87c-.47-4.01-2.26-7.77-5.14-10.66l-53.93-53.93c-3.38-3.38-7.95-5.27-12.72-5.27h0s0,0-.01,0H50.65c-10.68,0-19.33,8.66-19.33,19.33v292.91c0,10.68,8.66,19.33,19.33,19.33h211.71c10.68,0,19.33-8.66,19.33-19.33V76.95h0v-2.09h-.13Z"/>
        <path class="cls-62" d="M281.49,74.78c-.47-4.01-2.26-7.77-5.14-10.66l-53.93-53.93c-3.38-3.38-7.95-5.27-12.72-5.27h0s0,0-.01,0H50.58c-10.68,0-19.33,8.66-19.33,19.33v292.91c0,10.68,8.66,19.33,19.33,19.33h211.71c10.68,0,19.33-8.66,19.33-19.33V76.87h0v-2.09h-.13Z"/>
        <path class="cls-63" d="M281.42,74.69c-.47-4.01-2.26-7.77-5.14-10.66l-53.93-53.93c-3.38-3.38-7.95-5.27-12.72-5.27h0s0,0-.01,0H50.5c-10.68,0-19.33,8.66-19.33,19.33v292.91c0,10.68,8.66,19.33,19.33,19.33h211.71c10.68,0,19.33-8.66,19.33-19.33V76.78h0v-2.09h-.13Z"/>
        <path class="cls-50" d="M281.34,74.61c-.47-4.01-2.26-7.77-5.14-10.66l-53.93-53.93c-3.38-3.38-7.95-5.27-12.72-5.27h0s0,0,0,0H50.43c-10.68,0-19.33,8.66-19.33,19.33v292.91c0,10.68,8.66,19.33,19.33,19.33h211.71c10.68,0,19.33-8.66,19.33-19.33V76.7h0v-2.09h-.13Z"/>
        <path class="cls-120" d="M281.27,74.52c-.47-4.01-2.26-7.77-5.14-10.66l-53.93-53.93c-3.38-3.38-7.95-5.27-12.72-5.27h0s0,0-.01,0H50.35c-10.68,0-19.33,8.66-19.33,19.33v292.91c0,10.68,8.66,19.33,19.33,19.33h211.71c10.68,0,19.33-8.66,19.33-19.33V76.61h0v-2.09h-.13Z"/>
        <path class="cls-58" d="M281.19,74.43c-.47-4.01-2.26-7.77-5.14-10.66l-53.93-53.93c-3.38-3.38-7.95-5.27-12.72-5.27h0s0,0,0,0H50.28c-10.68,0-19.33,8.66-19.33,19.33v292.91c0,10.68,8.66,19.33,19.33,19.33h211.71c10.68,0,19.33-8.66,19.33-19.33V76.52h0v-2.09h-.13Z"/>
        <path class="cls-5" d="M281.12,74.35c-.47-4.01-2.26-7.77-5.14-10.66l-53.93-53.93c-3.38-3.38-7.95-5.27-12.72-5.27h0s0,0-.01,0H50.21c-10.68,0-19.33,8.66-19.33,19.33v292.91c0,10.68,8.66,19.33,19.33,19.33h211.71c10.68,0,19.33-8.66,19.33-19.33V76.44h0v-2.09h-.13Z"/>
        <path class="cls-168" d="M281.05,74.26c-.47-4.01-2.26-7.77-5.14-10.66l-53.93-53.93c-3.38-3.38-7.95-5.27-12.72-5.27h0s0,0,0,0H50.13c-10.68,0-19.33,8.66-19.33,19.33v292.91c0,10.68,8.66,19.33,19.33,19.33h211.71c10.68,0,19.33-8.66,19.33-19.33V76.35h0v-2.09h-.13Z"/>
        <path class="cls-74" d="M280.97,74.17c-.47-4.01-2.26-7.77-5.14-10.66l-53.93-53.93c-3.38-3.38-7.95-5.27-12.72-5.27h0s0,0-.01,0H50.06c-10.68,0-19.33,8.66-19.33,19.33v292.91c0,10.68,8.66,19.33,19.33,19.33h211.71c10.68,0,19.33-8.66,19.33-19.33V76.26h0v-2.09h-.13Z"/>
        <path class="cls-55" d="M280.9,74.09c-.47-4.01-2.26-7.77-5.14-10.66l-53.93-53.93c-3.38-3.38-7.95-5.27-12.72-5.27h0s0,0,0,0H49.98c-10.68,0-19.33,8.66-19.33,19.33v292.91c0,10.68,8.66,19.33,19.33,19.33h211.71c10.68,0,19.33-8.66,19.33-19.33V76.18h0v-2.09h-.13Z"/>
        <path class="cls-241" d="M280.82,74c-.47-4.01-2.26-7.77-5.14-10.66l-53.93-53.93c-3.38-3.38-7.95-5.27-12.72-5.27h0s0,0-.01,0H49.91c-10.68,0-19.33,8.66-19.33,19.33v292.91c0,10.68,8.66,19.33,19.33,19.33h211.71c10.68,0,19.33-8.66,19.33-19.33V76.09h0v-2.09h-.13Z"/>
        <path class="cls-228" d="M280.75,73.92c-.47-4.01-2.26-7.77-5.14-10.66l-53.93-53.93c-3.38-3.38-7.95-5.27-12.72-5.27h0s0,0,0,0H49.83c-10.68,0-19.33,8.66-19.33,19.33v292.91c0,10.68,8.66,19.33,19.33,19.33h211.71c10.68,0,19.33-8.66,19.33-19.33V76.01h0v-2.09h-.13Z"/>
        <path class="cls-167" d="M280.68,73.83c-.47-4.01-2.26-7.77-5.14-10.66l-53.93-53.93c-3.38-3.38-7.95-5.27-12.72-5.27h0s0,0-.01,0H49.76c-10.68,0-19.33,8.66-19.33,19.33v292.91c0,10.68,8.66,19.33,19.33,19.33h211.71c10.68,0,19.33-8.66,19.33-19.33V75.92h0v-2.09h-.13Z"/>
        <path class="cls-198" d="M280.6,73.74c-.47-4.01-2.26-7.77-5.14-10.66l-53.93-53.93c-3.38-3.38-7.95-5.27-12.72-5.27h0s0,0,0,0H49.69c-10.68,0-19.33,8.66-19.33,19.33v292.91c0,10.68,8.66,19.33,19.33,19.33h211.71c10.68,0,19.33-8.66,19.33-19.33V75.83h0v-2.09h-.13Z"/>
        <path class="cls-38" d="M280.53,73.66c-.47-4.01-2.26-7.77-5.14-10.66l-53.93-53.93c-3.38-3.38-7.95-5.27-12.72-5.27h0s0,0-.01,0H49.61c-10.68,0-19.33,8.66-19.33,19.33v292.91c0,10.68,8.66,19.33,19.33,19.33h211.71c10.68,0,19.33-8.66,19.33-19.33V75.75h0v-2.09h-.13Z"/>
        <path class="cls-176" d="M280.45,73.57c-.47-4.01-2.26-7.77-5.14-10.66l-53.93-53.93c-3.38-3.38-7.95-5.27-12.72-5.27h0s0,0-.01,0H49.54c-10.68,0-19.33,8.66-19.33,19.33v292.91c0,10.68,8.66,19.33,19.33,19.33h211.71c10.68,0,19.33-8.66,19.33-19.33V75.66h0v-2.09h-.13Z"/>
        <path class="cls-116" d="M280.38,73.48c-.47-4.01-2.26-7.77-5.14-10.66l-53.93-53.93c-3.38-3.38-7.95-5.27-12.72-5.27h0s0,0-.01,0H49.46c-10.68,0-19.33,8.66-19.33,19.33v292.91c0,10.68,8.66,19.33,19.33,19.33h211.71c10.68,0,19.33-8.66,19.33-19.33V75.57h0v-2.09h-.13Z"/>
        <path class="cls-8" d="M280.3,73.4c-.47-4.01-2.26-7.77-5.14-10.66l-53.93-53.93c-3.38-3.38-7.95-5.27-12.72-5.27h0s0,0-.01,0H49.39c-10.68,0-19.33,8.66-19.33,19.33v292.91c0,10.68,8.66,19.33,19.33,19.33h211.71c10.68,0,19.33-8.66,19.33-19.33V75.49h0v-2.09h-.13Z"/>
        <path class="cls-57" d="M280.23,73.31c-.47-4.01-2.26-7.77-5.14-10.66l-53.93-53.93c-3.38-3.38-7.95-5.27-12.72-5.27h0s0,0-.01,0H49.32c-10.68,0-19.33,8.66-19.33,19.33v292.91c0,10.68,8.66,19.33,19.33,19.33h211.71c10.68,0,19.33-8.66,19.33-19.33V75.4h0v-2.09h-.13Z"/>
        <path class="cls-253" d="M280.16,73.22c-.47-4.01-2.26-7.77-5.14-10.66l-53.93-53.93c-3.38-3.38-7.95-5.27-12.72-5.27h0s0,0-.01,0H49.24c-10.68,0-19.33,8.66-19.33,19.33v292.91c0,10.68,8.66,19.33,19.33,19.33h211.71c10.68,0,19.33-8.66,19.33-19.33V75.31h0v-2.09h-.13Z"/>
        <path class="cls-148" d="M280.08,73.14c-.47-4.01-2.26-7.77-5.14-10.66l-53.93-53.93c-3.38-3.38-7.95-5.27-12.72-5.27h0s0,0-.01,0H49.17c-10.68,0-19.33,8.66-19.33,19.33v292.91c0,10.68,8.66,19.33,19.33,19.33h211.71c10.68,0,19.33-8.66,19.33-19.33V75.23h0v-2.09h-.13Z"/>
        <path class="cls-37" d="M280.01,73.05c-.47-4.01-2.26-7.77-5.14-10.66l-53.93-53.93c-3.38-3.38-7.95-5.27-12.72-5.27h0s0,0-.01,0H49.09c-10.68,0-19.33,8.66-19.33,19.33v292.91c0,10.68,8.66,19.33,19.33,19.33h211.71c10.68,0,19.33-8.66,19.33-19.33V75.14h0v-2.09h-.13Z"/>
        <path class="cls-17" d="M279.93,72.97c-.47-4.01-2.26-7.77-5.14-10.66l-53.93-53.93c-3.38-3.38-7.95-5.27-12.72-5.27h0s0,0-.01,0H49.02c-10.68,0-19.33,8.66-19.33,19.33v292.91c0,10.68,8.66,19.33,19.33,19.33h211.71c10.68,0,19.33-8.66,19.33-19.33V75.06h0v-2.09h-.13Z"/>
        <path class="cls-217" d="M279.86,72.88c-.47-4.01-2.26-7.77-5.14-10.66l-53.93-53.93c-3.38-3.38-7.95-5.27-12.72-5.27h0s0,0-.01,0H48.94c-10.68,0-19.33,8.66-19.33,19.33v292.91c0,10.68,8.66,19.33,19.33,19.33h211.71c10.68,0,19.33-8.66,19.33-19.33V74.97h0v-2.09h-.13Z"/>
        <path class="cls-159" d="M279.79,72.79c-.47-4.01-2.26-7.77-5.14-10.66l-53.93-53.93c-3.38-3.38-7.95-5.27-12.72-5.27h0s0,0-.01,0H48.87c-10.68,0-19.33,8.66-19.33,19.33v292.91c0,10.68,8.66,19.33,19.33,19.33h211.71c10.68,0,19.33-8.66,19.33-19.33V74.88h0v-2.09h-.13Z"/>
        <path class="cls-220" d="M279.71,72.71c-.47-4.01-2.26-7.77-5.14-10.66l-53.93-53.93c-3.38-3.38-7.95-5.27-12.72-5.27h0s0,0-.01,0H48.8c-10.68,0-19.33,8.66-19.33,19.33v292.91c0,10.68,8.66,19.33,19.33,19.33h211.71c10.68,0,19.33-8.66,19.33-19.33V74.8h0v-2.09h-.13Z"/>
        <path class="cls-209" d="M279.64,72.62c-.47-4.01-2.26-7.77-5.14-10.66l-53.93-53.93c-3.38-3.38-7.95-5.27-12.72-5.27h0s0,0-.01,0H48.72c-10.68,0-19.33,8.66-19.33,19.33v292.91c0,10.68,8.66,19.33,19.33,19.33h211.71c10.68,0,19.33-8.66,19.33-19.33V74.71h0v-2.09h-.13Z"/>
        <path class="cls-81" d="M279.56,72.53c-.47-4.01-2.26-7.77-5.14-10.66L220.49,7.95c-3.38-3.38-7.95-5.27-12.72-5.27h0s0,0-.01,0H48.65c-10.68,0-19.33,8.66-19.33,19.33v292.91c0,10.68,8.66,19.33,19.33,19.33h211.71c10.68,0,19.33-8.66,19.33-19.33V74.62h0v-2.09h-.13Z"/>
        <path class="cls-202" d="M279.49,72.45c-.47-4.01-2.26-7.77-5.14-10.66L220.42,7.87c-3.38-3.38-7.95-5.27-12.72-5.27h0s0,0-.01,0H48.57c-10.68,0-19.33,8.66-19.33,19.33v292.91c0,10.68,8.66,19.33,19.33,19.33h211.71c10.68,0,19.33-8.66,19.33-19.33V74.54h0v-2.09h-.13Z"/>
        <path class="cls-261" d="M279.41,72.36c-.47-4.01-2.26-7.77-5.14-10.66L220.35,7.78c-3.38-3.38-7.95-5.27-12.72-5.27h0s0,0-.01,0H48.5c-10.68,0-19.33,8.66-19.33,19.33v292.91c0,10.68,8.66,19.33,19.33,19.33h211.71c10.68,0,19.33-8.66,19.33-19.33V74.45h0v-2.09h-.13Z"/>
        <path class="cls-135" d="M279.34,72.28c-.47-4.01-2.26-7.77-5.14-10.66L220.27,7.69c-3.38-3.38-7.95-5.27-12.72-5.27h0s0,0,0,0H48.43c-10.68,0-19.33,8.66-19.33,19.33v292.91c0,10.68,8.66,19.33,19.33,19.33h211.71c10.68,0,19.33-8.66,19.33-19.33V74.36h0v-2.09h-.13Z"/>
        <path class="cls-161" d="M279.27,72.19c-.47-4.01-2.26-7.77-5.14-10.66L220.2,7.61c-3.38-3.38-7.95-5.27-12.72-5.27h0s0,0-.01,0H48.35c-10.68,0-19.33,8.66-19.33,19.33v292.91c0,10.68,8.66,19.33,19.33,19.33h211.71c10.68,0,19.33-8.66,19.33-19.33V74.28h0v-2.09h-.13Z"/>
        <path class="cls-111" d="M279.19,72.1c-.47-4.01-2.26-7.77-5.14-10.66L220.12,7.52c-3.38-3.38-7.95-5.27-12.72-5.27h0s0,0-.01,0H48.28c-10.68,0-19.33,8.66-19.33,19.33v292.91c0,10.68,8.66,19.33,19.33,19.33h211.71c10.68,0,19.33-8.66,19.33-19.33V74.19h0v-2.09h-.13Z"/>
        <path class="cls-98" d="M279.12,72.02c-.47-4.01-2.26-7.77-5.14-10.66L220.05,7.43c-3.38-3.38-7.95-5.27-12.72-5.27h0s0,0-.01,0H48.2c-10.68,0-19.33,8.66-19.33,19.33v292.91c0,10.68,8.66,19.33,19.33,19.33h211.71c10.68,0,19.33-8.66,19.33-19.33V74.11h0v-2.09h-.13Z"/>
        <path class="cls-107" d="M279.04,71.93c-.47-4.01-2.26-7.77-5.14-10.66L219.97,7.35c-3.38-3.38-7.95-5.27-12.72-5.27h0s0,0-.01,0H48.13c-10.68,0-19.33,8.66-19.33,19.33v292.91c0,10.68,8.66,19.33,19.33,19.33h211.71c10.68,0,19.33-8.66,19.33-19.33V74.02h0v-2.09h-.13Z"/>
        <path class="cls-10" d="M278.97,71.84c-.47-4.01-2.26-7.77-5.14-10.66L219.9,7.26c-3.38-3.38-7.95-5.27-12.72-5.27h0s0,0-.01,0H48.06c-10.68,0-19.33,8.66-19.33,19.33v292.91c0,10.68,8.66,19.33,19.33,19.33h211.71c10.68,0,19.33-8.66,19.33-19.33V73.93h0v-2.09h-.13Z"/>
        <path class="cls-139" d="M278.9,71.76c-.47-4.01-2.26-7.77-5.14-10.66L219.83,7.17c-3.38-3.38-7.95-5.27-12.72-5.27h0s0,0-.01,0H47.98c-10.68,0-19.33,8.66-19.33,19.33v292.91c0,10.68,8.66,19.33,19.33,19.33h211.71c10.68,0,19.33-8.66,19.33-19.33V73.85h0v-2.09h-.13Z"/>
        <path class="cls-163" d="M278.82,71.67c-.47-4.01-2.26-7.77-5.14-10.66L219.75,7.09c-3.38-3.38-7.95-5.27-12.72-5.27h0s0,0-.01,0H47.91c-10.68,0-19.33,8.66-19.33,19.33v292.91c0,10.68,8.66,19.33,19.33,19.33h211.71c10.68,0,19.33-8.66,19.33-19.33V73.76h0v-2.09h-.13Z"/>
        <path class="cls-65" d="M278.75,71.58c-.47-4.01-2.26-7.77-5.14-10.66L219.68,7c-3.38-3.38-7.95-5.27-12.72-5.27h0s0,0-.01,0H47.83c-10.68,0-19.33,8.66-19.33,19.33v292.91c0,10.68,8.66,19.33,19.33,19.33h211.71c10.68,0,19.33-8.66,19.33-19.33V73.67h0v-2.09h-.13Z"/>
        <path class="cls-185" d="M278.67,71.5c-.47-4.01-2.26-7.77-5.14-10.66L219.6,6.92c-3.38-3.38-7.95-5.27-12.72-5.27h0s0,0-.01,0H47.76c-10.68,0-19.33,8.66-19.33,19.33v292.91c0,10.68,8.66,19.33,19.33,19.33h211.71c10.68,0,19.33-8.66,19.33-19.33V73.59h0v-2.09h-.13Z"/>
        <path class="cls-122" d="M278.6,71.41c-.47-4.01-2.26-7.77-5.14-10.66L219.53,6.83c-3.38-3.38-7.95-5.27-12.72-5.27h0s0,0-.01,0H47.68c-10.68,0-19.33,8.66-19.33,19.33v292.91c0,10.68,8.66,19.33,19.33,19.33h211.71c10.68,0,19.33-8.66,19.33-19.33V73.5h0v-2.09h-.13Z"/>
        <path class="cls-124" d="M278.52,71.33c-.47-4.01-2.26-7.77-5.14-10.66L219.46,6.74c-3.38-3.38-7.95-5.27-12.72-5.27h0s0,0-.01,0H47.61c-10.68,0-19.33,8.66-19.33,19.33v292.91c0,10.68,8.66,19.33,19.33,19.33h211.71c10.68,0,19.33-8.66,19.33-19.33V73.42h0v-2.09h-.13Z"/>
        <path class="cls-96" d="M278.45,71.24c-.47-4.01-2.26-7.77-5.14-10.66L219.38,6.66c-3.38-3.38-7.95-5.27-12.72-5.27h0s0,0-.01,0H47.54c-10.68,0-19.33,8.66-19.33,19.33v292.91c0,10.68,8.66,19.33,19.33,19.33h211.71c10.68,0,19.33-8.66,19.33-19.33V73.33h0v-2.09h-.13Z"/>
        <path class="cls-181" d="M278.38,71.15c-.47-4.01-2.26-7.77-5.14-10.66L219.31,6.57c-3.38-3.38-7.95-5.27-12.72-5.27h0s0,0-.01,0H47.46c-10.68,0-19.33,8.66-19.33,19.33v292.91c0,10.68,8.66,19.33,19.33,19.33h211.71c10.68,0,19.33-8.66,19.33-19.33V73.24h0v-2.09h-.13Z"/>
        <path class="cls-44" d="M278.3,71.07c-.47-4.01-2.26-7.77-5.14-10.66L219.23,6.48c-3.38-3.38-7.95-5.27-12.72-5.27h0s0,0-.01,0H47.39c-10.68,0-19.33,8.66-19.33,19.33v292.91c0,10.68,8.66,19.33,19.33,19.33h211.71c10.68,0,19.33-8.66,19.33-19.33V73.16h0v-2.09h-.13Z"/>
        <path class="cls-195" d="M278.23,70.98c-.47-4.01-2.26-7.77-5.14-10.66L219.16,6.4c-3.38-3.38-7.95-5.27-12.72-5.27h0s0,0-.01,0H47.31c-10.68,0-19.33,8.66-19.33,19.33v292.91c0,10.68,8.66,19.33,19.33,19.33h211.71c10.68,0,19.33-8.66,19.33-19.33V73.07h0v-2.09h-.13Z"/>
        <path class="cls-48" d="M278.15,70.89c-.47-4.01-2.26-7.77-5.14-10.66L219.09,6.31c-3.38-3.38-7.95-5.27-12.72-5.27h0s0,0-.01,0H47.24c-10.68,0-19.33,8.66-19.33,19.33v292.91c0,10.68,8.66,19.33,19.33,19.33h211.71c10.68,0,19.33-8.66,19.33-19.33V72.98h0v-2.09h-.13Z"/>
        <path class="cls-54" d="M278.08,70.81c-.47-4.01-2.26-7.77-5.14-10.66L219.01,6.22c-3.38-3.38-7.95-5.27-12.72-5.27h0s0,0-.01,0H47.17c-10.68,0-19.33,8.66-19.33,19.33v292.91c0,10.68,8.66,19.33,19.33,19.33h211.71c10.68,0,19.33-8.66,19.33-19.33V72.9h0v-2.09h-.13Z"/>
        <path class="cls-134" d="M278.01,70.72c-.47-4.01-2.26-7.77-5.14-10.66L218.94,6.14c-3.38-3.38-7.95-5.27-12.72-5.27h0s0,0-.01,0H47.09c-10.68,0-19.33,8.66-19.33,19.33v292.91c0,10.68,8.66,19.33,19.33,19.33h211.71c10.68,0,19.33-8.66,19.33-19.33V72.81h0v-2.09h-.13Z"/>
        <path class="cls-218" d="M277.93,70.63c-.47-4.01-2.26-7.77-5.14-10.66L218.86,6.05c-3.38-3.38-7.95-5.27-12.72-5.27h0s0,0,0,0H47.02c-10.68,0-19.33,8.66-19.33,19.33v292.91c0,10.68,8.66,19.33,19.33,19.33h211.71c10.68,0,19.33-8.66,19.33-19.33V72.72h0v-2.09h-.13Z"/>
        <path class="cls-75" d="M277.86,70.55c-.47-4.01-2.26-7.77-5.14-10.66L218.79,5.97c-3.38-3.38-7.95-5.27-12.72-5.27h0s0,0-.01,0H46.94c-10.68,0-19.33,8.66-19.33,19.33v292.91c0,10.68,8.66,19.33,19.33,19.33h211.71c10.68,0,19.33-8.66,19.33-19.33V72.64h0v-2.09h-.13Z"/>
        <path class="cls-172" d="M277.78,70.46c-.47-4.01-2.26-7.77-5.14-10.66L218.71,5.88c-3.38-3.38-7.95-5.27-12.72-5.27h0s0,0-.01,0H46.87c-10.68,0-19.33,8.66-19.33,19.33v292.91c0,10.68,8.66,19.33,19.33,19.33h211.71c10.68,0,19.33-8.66,19.33-19.33V72.55h0v-2.09h-.13Z"/>
        <path class="cls-170" d="M277.71,70.38c-.47-4.01-2.26-7.77-5.14-10.66L218.64,5.79c-3.38-3.38-7.95-5.27-12.72-5.27h0s0,0-.01,0H46.79c-10.68,0-19.33,8.66-19.33,19.33v292.91c0,10.68,8.66,19.33,19.33,19.33h211.71c10.68,0,19.33-8.66,19.33-19.33V72.47h0v-2.09h-.13Z"/>
        <path class="cls-91" d="M277.64,70.29c-.47-4.01-2.26-7.77-5.14-10.66L218.57,5.71c-3.38-3.38-7.95-5.27-12.72-5.27h0s0,0-.01,0H46.72c-10.68,0-19.33,8.66-19.33,19.33v292.91c0,10.68,8.66,19.33,19.33,19.33h211.71c10.68,0,19.33-8.66,19.33-19.33V72.38h0v-2.09h-.13Z"/>
        <path class="cls-193" d="M277.56,70.2c-.47-4.01-2.26-7.77-5.14-10.66L218.49,5.62c-3.38-3.38-7.95-5.27-12.72-5.27h0s0,0-.01,0H46.65c-10.68,0-19.33,8.66-19.33,19.33v292.91c0,10.68,8.66,19.33,19.33,19.33h211.71c10.68,0,19.33-8.66,19.33-19.33V72.29h0v-2.09h-.13Z"/>
        <path class="cls-121" d="M277.49,70.12c-.47-4.01-2.26-7.77-5.14-10.66L218.42,5.53c-3.38-3.38-7.95-5.27-12.72-5.27h0s0,0-.01,0H46.57c-10.68,0-19.33,8.66-19.33,19.33v292.91c0,10.68,8.66,19.33,19.33,19.33h211.71c10.68,0,19.33-8.66,19.33-19.33V72.21h0v-2.09h-.13Z"/>
        <path class="cls-108" d="M277.41,70.03c-.47-4.01-2.26-7.77-5.14-10.66L218.34,5.45c-3.38-3.38-7.95-5.27-12.72-5.27h0s0,0-.01,0H46.5c-10.68,0-19.33,8.66-19.33,19.33v292.91c0,10.68,8.66,19.33,19.33,19.33h211.71c10.68,0,19.33-8.66,19.33-19.33V72.12h0v-2.09h-.13Z"/>
        <path class="cls-162" d="M277.34,69.94c-.47-4.01-2.26-7.77-5.14-10.66L218.27,5.36c-3.38-3.38-7.95-5.27-12.72-5.27h0s0,0-.01,0H46.42C35.75.09,27.09,8.74,27.09,19.42v292.91c0,10.68,8.66,19.33,19.33,19.33h211.71c10.68,0,19.33-8.66,19.33-19.33V72.03h0v-2.09h-.13Z"/>
        <path d="M277.26,69.86c-.47-4.01-2.26-7.77-5.14-10.66L218.2,5.27C214.82,1.9,210.24,0,205.47,0h0s0,0-.01,0H46.35c-10.68,0-19.33,8.66-19.33,19.33v292.91c0,10.68,8.66,19.33,19.33,19.33h211.71c10.68,0,19.33-8.66,19.33-19.33V71.95h0v-2.09h-.13Z"/>
      </g>
      <path class="cls-157" d="M275.31,69.86L205.47,0H46.25c-10.62,0-19.24,8.61-19.24,19.24v293.1c0,10.62,8.61,19.24,19.24,19.24h211.91c10.62,0,19.24-8.61,19.24-19.24V69.86h-2.09Z"/>
      <path class="cls-23" d="M140.57,37.52H14.56C6.52,37.52,0,44.04,0,52.08v88.12h140.57c8.04,0,14.56-6.52,14.56-14.56V52.08c0-8.04-6.52-14.56-14.56-14.56Z"/>
      <polygon class="cls-142" points="26.95 171.82 0 140.2 26.95 140.2 26.95 171.82"/>
      <path class="cls-222" d="M277.4,71.95h0c0-4.79-1.9-9.37-5.27-12.75L218.2,5.27C214.82,1.9,210.24,0,205.47,0v56.73c0,8.4,6.81,15.21,15.21,15.21h56.71Z"/>
      <g>
        <path class="cls-145" d="M45.85,73.08h9.77v17.14c0,3.6-.32,6.34-.96,8.22-.64,1.88-1.92,3.47-3.85,4.77-1.93,1.3-4.4,1.96-7.41,1.96-3.19,0-5.65-.43-7.4-1.29-1.75-.86-3.1-2.12-4.06-3.78-.95-1.66-1.52-3.71-1.69-6.14l9.32-1.27c.01,1.39.14,2.43.37,3.1.23.67.62,1.22,1.16,1.64.37.27.9.41,1.59.41,1.09,0,1.89-.41,2.4-1.22.51-.81.76-2.18.76-4.1v-19.44Z"/>
        <path class="cls-145" d="M62.08,73.08h16.21c3.53,0,6.17.84,7.93,2.52,1.76,1.68,2.64,4.07,2.64,7.17s-.96,5.68-2.87,7.47-4.84,2.69-8.77,2.69h-5.34v11.71h-9.79v-31.55ZM71.88,86.54h2.39c1.88,0,3.2-.33,3.96-.98.76-.65,1.14-1.49,1.14-2.51s-.33-1.83-.99-2.52c-.66-.69-1.9-1.03-3.72-1.03h-2.78v7.04Z"/>
        <path class="cls-145" d="M109.82,93.21v-6.56h15.07v13.45c-2.88,1.97-5.43,3.3-7.65,4.01-2.22.71-4.85,1.07-7.89,1.07-3.75,0-6.8-.64-9.16-1.92-2.36-1.28-4.19-3.18-5.49-5.7-1.3-2.53-1.95-5.42-1.95-8.7,0-3.44.71-6.44,2.13-8.99,1.42-2.55,3.5-4.48,6.24-5.8,2.14-1.02,5.01-1.53,8.63-1.53s6.09.32,7.82.95c1.73.63,3.16,1.61,4.3,2.94,1.14,1.33,2,3.01,2.57,5.05l-9.41,1.68c-.39-1.19-1.04-2.1-1.97-2.73-.93-.63-2.11-.95-3.54-.95-2.14,0-3.84.74-5.11,2.23s-1.9,3.84-1.9,7.05c0,3.42.64,5.85,1.93,7.32,1.28,1.46,3.07,2.2,5.37,2.2,1.09,0,2.13-.16,3.12-.47.99-.32,2.12-.85,3.4-1.61v-2.97h-6.52Z"/>
      </g>
      <g>
        <path class="cls-23" d="M213.49,192.16c0-2.14-1.74-3.88-3.88-3.88h-114.81c-2.14,0-3.88,1.74-3.88,3.88v78.31c0,2.14,1.74,3.88,3.88,3.88h114.81c.24,0,.47-.03.69-.07.07-.01.13-.03.2-.04.17-.04.34-.09.5-.16.05-.02.11-.04.16-.06.2-.09.39-.19.58-.31.05-.03.09-.07.13-.1.14-.1.27-.21.4-.33.05-.04.09-.09.14-.13.14-.14.27-.3.38-.46.01-.02.03-.04.05-.06.11-.16.2-.32.28-.5.01-.03.02-.06.03-.09.03-.06.05-.13.07-.19.06-.16.11-.32.15-.48.02-.06.03-.13.04-.19.04-.23.07-.46.07-.68,0,0,0-.02,0-.03v-78.31ZM205.73,196.04v63.54l-29.79-36.43c-.74-.9-1.84-1.43-3.01-1.43s-2.27.52-3.01,1.43l-30.5,37.31-17.03-21.65c-.74-.94-1.86-1.48-3.05-1.48s-2.32.55-3.05,1.48l-17.6,22.37v-65.13h107.04Z"/>
        <path class="cls-23" d="M139.5,229.49c7.12,0,12.91-5.79,12.91-12.91s-5.79-12.91-12.91-12.91-12.91,5.79-12.91,12.91,5.79,12.91,12.91,12.91Z"/>
      </g>
    </g>
  </g>
</svg>